<svg width="661" height="347" viewBox="0 0 661 347" fill="none" xmlns="http://www.w3.org/2000/svg">
<g filter="url(#filter0_d_1397_1659)">
<rect x="280.469" y="14.0001" width="373.346" height="146.461" rx="22.4487" transform="rotate(2.4448 280.469 14.0001)" fill="white"/>
</g>
<path d="M365.691 36.3384C355.237 33.8194 344.62 39.1399 339.296 48.6786C337.5 47.6523 335.541 46.8636 333.445 46.3586C320.656 43.277 307.623 51.9283 304.336 65.682C301.958 75.6312 305.331 85.525 312.22 91.4037C310.476 94.0045 309.147 96.9814 308.367 100.246C305.079 113.999 312.782 127.647 325.571 130.729C332.038 132.287 338.567 130.845 343.867 127.261C346.97 132.87 352.136 137.13 358.603 138.688C371.392 141.77 384.425 133.118 387.712 119.365C388.485 116.129 388.65 112.898 388.284 109.81C397.152 107.763 404.708 100.455 407.101 90.4439C410.388 76.6903 402.685 63.0425 389.896 59.9609C387.8 59.4559 385.698 59.266 383.633 59.3619C383.201 48.4362 376.145 38.8574 365.691 36.3384Z" fill="#8BC062"/>
<path d="M348.078 108.508C341.395 108.223 334.784 117.039 334.53 122.973C334.277 128.906 336.553 133.907 337.46 135.762C335.639 136.512 331.436 138.038 329.854 141.537C328.3 146.795 344.732 147.651 351.433 147.906C359.285 148.458 373.343 146.392 373.579 142.06C373.592 141.758 373.762 138.47 374.313 135.223C374.538 133.892 374.755 132.606 374.922 131.613" stroke="#1E1E1E" stroke-width="1.52564"/>
<path d="M331.18 144.436C316.763 143.82 309.627 140.477 309.593 139.115C309.675 137.189 313.499 135.263 315.4 134.54C313.439 130.541 312.598 126.306 312.826 120.965" stroke="#1E1E1E" stroke-width="1.52564"/>
<path d="M342.236 71.8087C345.325 74.0454 349.716 73.2274 352.044 69.9816C349.709 73.2372 345.325 74.0454 342.236 71.8087ZM342.236 71.8087C339.147 69.572 338.531 65.1275 340.859 61.8817C338.524 65.1374 339.147 69.572 342.236 71.8087Z" stroke="#1E1E1E" stroke-width="1.52564"/>
<ellipse cx="356.811" cy="67.8696" rx="1.63461" ry="1.30769" transform="rotate(2.4448 356.811 67.8696)" fill="#1E1E1E"/>
<circle cx="341.914" cy="56.5443" r="1.52564" transform="rotate(2.4448 341.914 56.5443)" fill="#1E1E1E"/>
<path d="M385.493 67.9524L390.556 57.3494C389.355 55.604 386.819 51.5743 387.978 50.5022C388.159 50.3347 389.314 49.7607 392.188 51.7235L392.696 56.1264C392.225 53.5757 391.634 48.3953 393.039 48.0796C393.915 47.9418 395.458 48.0602 397.86 55.383C397.84 55.2945 398.122 49.9505 398.733 49.1989C399.008 48.8602 400.906 47.1888 402.886 57.8758C402.972 57.8795 406.818 55.415 408.325 56.7937C408.499 56.8011 410.263 64.3659 400.599 80.8648" stroke="#1E1E1E" stroke-width="1.52564"/>
<path d="M319.493 55.4188L311.281 41.4284C312.036 39.7945 313.35 36.3147 312.564 35.4665C311.561 34.8683 310.212 35.8289 307.826 39.1519C308.639 37.6439 310.049 34.378 309.195 33.3788C308.374 32.881 306.288 33.1437 304.503 38.177C304.41 38.173 306.52 32.5241 304.771 31.8941C303.794 31.4204 300.983 33.0467 297.552 43.3415C297.739 43.3495 294.921 41.4705 294.1 43.1941C293.624 44.192 295.895 50.7087 307.088 72.2912" stroke="#1E1E1E" stroke-width="1.52564"/>
<path d="M412.732 111.051C412.083 111.023 411.515 110.782 411.028 110.328C410.617 109.804 410.425 109.218 410.453 108.568C410.465 108.28 410.548 108.03 410.702 107.82L438.333 39.6115C438.584 38.8272 439.085 38.0896 439.837 37.399C440.662 36.7114 441.723 36.3953 443.022 36.4507L462.827 37.2963C464.197 37.3548 465.228 37.7602 465.919 38.5125C466.61 39.2648 467.046 40.0424 467.229 40.8452L489.054 111.165C489.117 111.385 489.143 111.639 489.13 111.928C489.102 112.577 488.825 113.143 488.299 113.627C487.847 114.041 487.297 114.234 486.648 114.207L469.982 113.495C468.755 113.443 467.865 113.116 467.313 112.514C466.76 111.912 466.387 111.354 466.192 110.84L463.225 101.606L437.144 100.492L433.401 109.44C433.163 109.935 432.743 110.46 432.141 111.012C431.611 111.568 430.697 111.818 429.398 111.762L412.732 111.051ZM442.903 82.4154L459.028 83.1038L451.951 58.4074L442.903 82.4154Z" fill="#1E1E1E"/>
<path d="M499.023 114.735C498.302 114.704 497.663 114.424 497.107 113.894C496.555 113.293 496.296 112.595 496.329 111.801L499.324 41.6735C499.357 40.8798 499.674 40.2428 500.273 39.7624C500.874 39.2099 501.536 38.949 502.257 38.9798L519.465 39.7145C520.258 39.7484 520.895 40.0647 521.376 40.6635C521.931 41.1931 522.192 41.8548 522.158 42.6484L521.188 65.375L538.307 42.7958C538.689 42.3061 539.215 41.8227 539.886 41.3454C540.557 40.868 541.47 40.654 542.624 40.7033L562.429 41.5489C563.078 41.5766 563.608 41.8522 564.02 42.3758C564.506 42.8302 564.736 43.3821 564.708 44.0314C564.69 44.4643 564.528 44.855 564.224 45.2034L540.102 76.9161L563.243 113.899C563.519 114.2 563.646 114.603 563.625 115.108C563.597 115.757 563.32 116.324 562.793 116.807C562.342 117.222 561.792 117.415 561.142 117.387L540.688 116.514C539.318 116.456 538.285 116.086 537.592 115.406C536.97 114.729 536.593 114.243 536.461 113.948L520.218 88.1016L519.164 112.776C519.13 113.57 518.812 114.243 518.211 114.795C517.684 115.279 517.024 115.504 516.23 115.47L499.023 114.735Z" fill="#1E1E1E"/>
<path d="M573.637 117.921C572.915 117.89 572.277 117.61 571.721 117.08C571.169 116.478 570.909 115.781 570.943 114.987L573.937 44.8592C573.971 44.0655 574.288 43.4285 574.886 42.9481C575.488 42.3956 576.15 42.1347 576.871 42.1655L595.269 42.951C596.063 42.9849 596.7 43.3012 597.18 43.9C597.736 44.4297 597.997 45.0913 597.963 45.8849L594.969 116.013C594.935 116.806 594.617 117.479 594.015 118.032C593.488 118.515 592.828 118.74 592.035 118.706L573.637 117.921Z" fill="#1E1E1E"/>
<path d="M609.474 72.6139C608.825 72.5861 608.293 72.3466 607.879 71.8952C607.464 71.4439 607.312 70.7868 607.421 69.9241L611.995 46.5925C612.182 45.5886 612.618 44.7036 613.301 43.9377C614.059 43.1028 615.124 42.7146 616.495 42.7731L631.429 43.4107C632.079 43.4384 632.61 43.678 633.025 44.1294C633.439 44.5807 633.633 45.1311 633.605 45.7804C633.589 46.1412 633.54 46.4643 633.455 46.7498L623.141 69.9448C622.821 70.6539 622.322 71.3554 621.641 72.0492C621.033 72.746 620.08 73.0667 618.781 73.0112L609.474 72.6139Z" fill="#1E1E1E"/>
<path d="M416.933 150.715C416.644 150.703 416.399 150.6 416.196 150.407C416.021 150.189 415.94 149.935 415.952 149.646L416.774 130.413L409.995 130.124C409.706 130.111 409.46 130.009 409.258 129.816C409.083 129.598 409.001 129.344 409.014 129.055L409.239 123.774C409.251 123.485 409.354 123.252 409.545 123.076C409.765 122.875 410.019 122.78 410.308 122.793L432.458 123.738C432.747 123.751 432.979 123.866 433.154 124.084C433.356 124.277 433.451 124.518 433.439 124.807L433.213 130.088C433.201 130.377 433.085 130.622 432.866 130.824C432.674 131 432.434 131.082 432.145 131.069L425.366 130.78L424.544 150.013C424.532 150.302 424.416 150.547 424.197 150.749C424.005 150.925 423.765 151.007 423.476 150.994L416.933 150.715Z" fill="#1E1E1E"/>
<path d="M447.593 152.419C445.15 152.314 443.011 151.841 441.178 151C439.372 150.159 437.977 148.915 436.994 147.268C436.039 145.595 435.614 143.523 435.72 141.054L436.408 124.934C436.42 124.645 436.536 124.413 436.754 124.238C436.973 124.037 437.214 123.942 437.477 123.953L443.901 124.227C444.19 124.239 444.422 124.355 444.597 124.573C444.799 124.766 444.894 125.007 444.882 125.296L444.199 141.297C444.141 142.637 444.427 143.663 445.054 144.374C445.682 145.085 446.613 145.467 447.848 145.52C449.083 145.573 450.031 145.271 450.69 144.615C451.376 143.959 451.748 142.962 451.805 141.622L452.489 125.62C452.501 125.331 452.616 125.099 452.834 124.924C453.053 124.723 453.307 124.629 453.596 124.641L459.981 124.914C460.27 124.926 460.502 125.041 460.677 125.259C460.88 125.452 460.975 125.693 460.962 125.982L460.274 142.102C460.169 144.572 459.569 146.599 458.474 148.185C457.381 149.744 455.899 150.865 454.027 151.548C452.155 152.232 450.011 152.522 447.593 152.419Z" fill="#1E1E1E"/>
<path d="M473.408 153.126C473.145 153.115 472.912 153.013 472.71 152.82C472.509 152.601 472.414 152.347 472.427 152.058L473.517 126.518C473.529 126.229 473.645 125.997 473.863 125.822C474.082 125.621 474.323 125.526 474.586 125.537L486.094 126.029C488.38 126.126 490.349 126.552 492.002 127.307C493.68 128.063 494.963 129.158 495.849 130.591C496.736 132.024 497.134 133.791 497.044 135.893C496.955 137.995 496.408 139.709 495.404 141.035C494.4 142.335 493.031 143.264 491.297 143.821C489.588 144.38 487.591 144.611 485.305 144.513L481.561 144.353L481.216 152.433C481.203 152.722 481.088 152.967 480.868 153.168C480.677 153.344 480.436 153.426 480.147 153.414L473.408 153.126ZM481.674 138.001L485.379 138.159C486.141 138.192 486.794 137.996 487.339 137.572C487.911 137.122 488.217 136.411 488.259 135.439C488.29 134.704 488.109 134.025 487.714 133.402C487.319 132.78 486.623 132.448 485.624 132.405L481.92 132.247L481.674 138.001Z" fill="#1E1E1E"/>
<path d="M500.658 154.29C500.395 154.278 500.163 154.176 499.96 153.983C499.759 153.764 499.665 153.51 499.677 153.221L500.767 127.682C500.78 127.393 500.895 127.161 501.113 126.986C501.332 126.784 501.573 126.689 501.836 126.701L521.148 127.525C521.437 127.538 521.682 127.653 521.883 127.872C522.086 128.065 522.181 128.306 522.168 128.595L521.97 133.246C521.959 133.509 521.844 133.741 521.624 133.942C521.405 134.143 521.151 134.238 520.862 134.225L508.683 133.705L508.517 137.607L519.828 138.09C520.117 138.103 520.363 138.218 520.564 138.437C520.766 138.63 520.861 138.871 520.849 139.16L520.667 143.417C520.655 143.706 520.539 143.951 520.32 144.152C520.102 144.327 519.848 144.409 519.559 144.396L508.248 143.913L508.078 147.894L520.572 148.427C520.861 148.44 521.106 148.556 521.307 148.775C521.508 148.994 521.603 149.248 521.59 149.537L521.393 154.148C521.381 154.437 521.265 154.682 521.046 154.884C520.828 155.059 520.575 155.14 520.285 155.128L500.658 154.29Z" fill="#1E1E1E"/>
<path d="M526.407 155.389C526.144 155.378 525.912 155.276 525.709 155.083C525.508 154.864 525.414 154.609 525.426 154.32L526.517 128.781C526.529 128.492 526.644 128.26 526.862 128.085C527.081 127.884 527.322 127.789 527.585 127.8L532.827 128.024C533.3 128.044 533.636 128.177 533.836 128.422C534.038 128.641 534.176 128.805 534.25 128.914L541.812 142.306L542.36 129.457C542.373 129.168 542.488 128.936 542.706 128.761C542.925 128.56 543.166 128.465 543.429 128.476L549.38 128.731C549.669 128.743 549.901 128.858 550.076 129.076C550.279 129.269 550.374 129.51 550.361 129.799L549.271 155.339C549.258 155.628 549.143 155.873 548.924 156.074C548.732 156.25 548.491 156.332 548.202 156.32L543 156.097C542.501 156.076 542.15 155.956 541.949 155.737C541.749 155.491 541.612 155.314 541.538 155.206L533.943 142.562L533.427 154.662C533.415 154.951 533.299 155.196 533.08 155.397C532.888 155.574 532.647 155.655 532.358 155.643L526.407 155.389Z" fill="#1E1E1E"/>
<path d="M565.073 157.435C562.314 157.317 560.031 156.838 558.224 155.997C556.445 155.132 555.122 154.062 554.255 152.787C553.415 151.488 552.999 150.141 553.006 148.746C553.016 148.51 553.103 148.316 553.268 148.165C553.432 148.014 553.632 147.944 553.869 147.954L560.136 148.221C560.503 148.237 560.79 148.315 560.994 148.455C561.2 148.57 561.417 148.737 561.644 148.957C561.868 149.256 562.132 149.544 562.436 149.82C562.742 150.07 563.14 150.284 563.633 150.463C564.127 150.616 564.702 150.706 565.359 150.734C566.567 150.786 567.507 150.668 568.177 150.381C568.849 150.067 569.197 149.622 569.221 149.044C569.241 148.597 569.072 148.221 568.717 147.917C568.388 147.613 567.808 147.325 566.977 147.053C566.146 146.78 565.014 146.482 563.58 146.157C561.571 145.729 559.845 145.155 558.402 144.436C556.96 143.69 555.869 142.735 555.129 141.572C554.416 140.383 554.096 138.948 554.167 137.266C554.24 135.558 554.778 134.068 555.78 132.794C556.808 131.522 558.192 130.555 559.931 129.892C561.697 129.23 563.722 128.948 566.008 129.046C567.9 129.126 569.558 129.447 570.982 130.008C572.432 130.57 573.639 131.28 574.602 132.137C575.567 132.968 576.293 133.854 576.779 134.796C577.265 135.739 577.504 136.631 577.494 137.472C577.484 137.709 577.383 137.915 577.191 138.091C577.027 138.242 576.839 138.313 576.629 138.304L570.047 138.023C569.732 138.01 569.458 137.945 569.226 137.83C569.021 137.716 568.831 137.537 568.657 137.293C568.541 136.919 568.227 136.577 567.714 136.265C567.201 135.954 566.537 135.781 565.722 135.746C564.829 135.708 564.139 135.836 563.653 136.131C563.167 136.4 562.912 136.824 562.888 137.402C562.871 137.796 563.001 138.143 563.277 138.445C563.554 138.746 564.055 139.031 564.781 139.299C565.508 139.54 566.522 139.821 567.825 140.139C570.305 140.614 572.293 141.225 573.788 141.973C575.309 142.723 576.4 143.664 577.063 144.798C577.725 145.932 578.021 147.327 577.95 148.982C577.871 150.848 577.263 152.427 576.129 153.721C574.994 155.015 573.466 155.99 571.542 156.645C569.647 157.275 567.49 157.538 565.073 157.435Z" fill="#1E1E1E"/>
<path d="M581.985 157.762C581.723 157.751 581.49 157.649 581.288 157.456C581.086 157.237 580.992 156.982 581.004 156.693L582.095 131.154C582.107 130.865 582.222 130.633 582.44 130.458C582.659 130.257 582.9 130.162 583.163 130.173L602.475 130.998C602.764 131.01 603.01 131.126 603.211 131.345C603.413 131.538 603.508 131.779 603.496 132.068L603.297 136.718C603.286 136.981 603.171 137.213 602.952 137.414C602.733 137.616 602.478 137.71 602.189 137.698L590.011 137.178L589.844 141.08L601.156 141.563C601.445 141.575 601.69 141.691 601.891 141.91C602.093 142.103 602.188 142.344 602.176 142.633L601.994 146.889C601.982 147.178 601.866 147.423 601.647 147.625C601.429 147.8 601.176 147.881 600.886 147.869L589.575 147.386L589.405 151.366L601.899 151.9C602.188 151.912 602.433 152.028 602.634 152.247C602.836 152.466 602.93 152.72 602.918 153.009L602.721 157.621C602.708 157.91 602.593 158.155 602.373 158.356C602.155 158.531 601.902 158.612 601.613 158.6L581.985 157.762Z" fill="#1E1E1E"/>
<path d="M617.61 159.678C614.851 159.56 612.569 159.081 610.762 158.24C608.982 157.375 607.659 156.305 606.792 155.031C605.953 153.731 605.537 152.384 605.544 150.989C605.554 150.753 605.641 150.559 605.805 150.408C605.97 150.257 606.17 150.187 606.407 150.197L612.673 150.464C613.041 150.48 613.327 150.558 613.532 150.699C613.738 150.813 613.954 150.98 614.182 151.2C614.406 151.499 614.67 151.787 614.974 152.063C615.279 152.313 615.678 152.528 616.171 152.706C616.664 152.859 617.239 152.95 617.896 152.978C619.105 153.029 620.044 152.911 620.715 152.624C621.386 152.311 621.734 151.865 621.759 151.287C621.778 150.84 621.61 150.464 621.254 150.16C620.925 149.856 620.345 149.568 619.514 149.296C618.684 149.023 617.551 148.725 616.117 148.4C614.109 147.972 612.383 147.399 610.94 146.679C609.497 145.933 608.406 144.978 607.666 143.815C606.954 142.626 606.633 141.191 606.705 139.509C606.778 137.801 607.315 136.311 608.317 135.037C609.346 133.765 610.729 132.798 612.469 132.135C614.234 131.473 616.26 131.191 618.546 131.289C620.438 131.37 622.096 131.69 623.519 132.251C624.969 132.813 626.176 133.523 627.14 134.38C628.105 135.211 628.83 136.098 629.317 137.04C629.803 137.982 630.041 138.874 630.032 139.716C630.021 139.952 629.92 140.158 629.729 140.334C629.564 140.485 629.377 140.556 629.167 140.547L622.585 140.266C622.27 140.253 621.996 140.189 621.764 140.073C621.558 139.959 621.368 139.78 621.195 139.536C621.079 139.162 620.765 138.82 620.251 138.508C619.738 138.197 619.074 138.024 618.26 137.989C617.367 137.951 616.677 138.079 616.19 138.374C615.705 138.643 615.45 139.067 615.425 139.645C615.408 140.039 615.538 140.387 615.815 140.688C616.092 140.989 616.593 141.274 617.318 141.542C618.045 141.783 619.06 142.064 620.362 142.383C622.843 142.857 624.83 143.468 626.325 144.217C627.846 144.966 628.938 145.907 629.6 147.041C630.263 148.175 630.558 149.57 630.488 151.225C630.408 153.091 629.801 154.67 628.667 155.964C627.532 157.259 626.003 158.233 624.08 158.888C622.184 159.518 620.028 159.781 617.61 159.678Z" fill="#1E1E1E"/>
<g filter="url(#filter1_d_1397_1659)">
<rect x="274.221" y="188.935" width="373.346" height="146.461" rx="22.4487" transform="rotate(-1.33236 274.221 188.935)" fill="white"/>
</g>
<path d="M360.731 205.611C350.134 203.786 339.89 209.794 335.207 219.663C333.346 218.757 331.34 218.099 329.215 217.733C316.251 215.501 303.816 224.992 301.442 238.932C299.725 249.016 303.742 258.667 311.004 264.079C309.435 266.789 308.304 269.847 307.741 273.155C305.367 287.096 313.952 300.206 326.917 302.439C333.472 303.568 339.892 301.699 344.944 297.774C348.41 303.166 353.845 307.076 360.401 308.205C373.365 310.437 385.799 300.946 388.174 287.006C388.732 283.726 388.684 280.492 388.115 277.435C396.828 274.808 403.887 267.018 405.615 256.871C407.989 242.93 399.404 229.82 386.439 227.587C384.315 227.221 382.205 227.17 380.151 227.402C378.999 216.529 371.328 207.435 360.731 205.611Z" fill="#FF7442"/>
<path d="M347.909 278.784C341.222 278.94 335.206 288.172 335.344 294.109C335.482 300.047 338.083 304.887 339.109 306.678C337.342 307.546 333.248 309.346 331.9 312.942C330.697 318.291 347.149 318.062 353.852 317.875C361.723 317.909 375.615 314.921 375.565 310.583C375.558 310.281 375.511 306.989 375.847 303.713C375.984 302.37 376.116 301.072 376.217 300.07" stroke="#1E1E1E" stroke-width="1.52564"/>
<path d="M333.415 315.747C318.988 316.082 311.647 313.216 311.523 311.86C311.479 309.933 315.167 307.758 317.017 306.912C314.797 303.05 313.678 298.88 313.554 293.536" stroke="#1E1E1E" stroke-width="1.52564"/>
<path d="M339.661 242.549C342.891 244.578 347.219 243.472 349.328 240.08C347.212 243.482 342.891 244.578 339.661 242.549ZM339.661 242.549C336.432 240.521 335.524 236.127 337.634 232.734C335.518 236.137 336.432 240.521 339.661 242.549Z" stroke="#1E1E1E" stroke-width="1.52564"/>
<ellipse cx="353.945" cy="237.658" rx="1.63461" ry="1.30769" transform="rotate(-1.33236 353.945 237.658)" fill="#1E1E1E"/>
<circle cx="338.336" cy="227.339" r="1.52564" transform="rotate(-1.33236 338.336 227.339)" fill="#1E1E1E"/>
<path d="M382.572 235.851L386.925 224.938C385.612 223.276 382.815 219.422 383.901 218.275C384.071 218.096 385.186 217.448 388.183 219.217L388.98 223.577C388.342 221.062 387.411 215.932 388.793 215.525C389.657 215.329 391.205 215.346 394.084 222.495C394.058 222.408 393.987 217.057 394.547 216.267C394.8 215.91 396.584 214.118 399.263 224.651C399.349 224.649 403.024 221.936 404.619 223.213C404.793 223.209 407.052 230.641 398.496 247.741" stroke="#1E1E1E" stroke-width="1.52564"/>
<path d="M315.889 227.693L306.774 214.274C307.42 212.594 308.501 209.035 307.661 208.24C306.621 207.71 305.338 208.757 303.176 212.23C303.887 210.672 305.08 207.32 304.161 206.379C303.31 205.937 301.246 206.336 299.796 211.476C299.703 211.478 301.437 205.703 299.65 205.189C298.644 204.781 295.946 206.589 293.201 217.087C293.387 217.083 290.452 215.394 289.746 217.168C289.337 218.195 292.032 224.548 304.623 245.346" stroke="#1E1E1E" stroke-width="1.52564"/>
<path d="M412.591 277.062C411.941 277.077 411.359 276.874 410.843 276.453C410.398 275.957 410.168 275.385 410.153 274.735C410.146 274.446 410.213 274.192 410.352 273.972L433.431 204.091C433.629 203.292 434.08 202.523 434.785 201.784C435.563 201.044 436.601 200.659 437.901 200.628L457.718 200.168C459.09 200.136 460.145 200.472 460.884 201.177C461.622 201.883 462.109 202.63 462.344 203.419L488.755 272.148C488.832 272.363 488.874 272.615 488.881 272.904C488.896 273.554 488.657 274.137 488.163 274.654C487.74 275.097 487.204 275.327 486.554 275.342L469.877 275.73C468.65 275.758 467.741 275.49 467.15 274.926C466.559 274.362 466.149 273.83 465.921 273.33L462.352 264.311L436.254 264.918L433.108 274.093C432.904 274.603 432.519 275.154 431.955 275.745C431.463 276.334 430.567 276.644 429.268 276.674L412.591 277.062ZM440.81 246.501L456.945 246.126L448.256 221.949L440.81 246.501Z" fill="#1E1E1E"/>
<path d="M498.937 275.054C498.215 275.071 497.56 274.833 496.97 274.341C496.379 273.777 496.075 273.098 496.056 272.304L494.424 202.131C494.406 201.337 494.679 200.68 495.245 200.162C495.809 199.571 496.452 199.267 497.174 199.25L514.392 198.849C515.187 198.831 515.843 199.105 516.362 199.67C516.951 200.162 517.255 200.805 517.273 201.6L517.802 224.341L533.396 200.683C533.745 200.169 534.239 199.652 534.877 199.131C535.515 198.611 536.412 198.337 537.567 198.31L557.384 197.85C558.034 197.834 558.581 198.075 559.026 198.57C559.541 198.991 559.807 199.527 559.822 200.177C559.832 200.61 559.697 201.01 559.416 201.378L537.436 234.611L562.962 269.989C563.258 270.271 563.412 270.665 563.423 271.17C563.438 271.82 563.199 272.403 562.706 272.92C562.282 273.364 561.746 273.593 561.096 273.608L540.629 274.084C539.258 274.116 538.203 273.815 537.466 273.182C536.801 272.548 536.393 272.088 536.242 271.802L518.331 247.082L518.906 271.772C518.924 272.566 518.651 273.259 518.087 273.85C517.593 274.367 516.95 274.635 516.155 274.653L498.937 275.054Z" fill="#1E1E1E"/>
<path d="M573.599 273.317C572.877 273.334 572.221 273.096 571.632 272.605C571.041 272.04 570.736 271.361 570.718 270.567L569.086 200.394C569.067 199.6 569.341 198.944 569.907 198.425C570.471 197.834 571.114 197.53 571.836 197.513L590.245 197.085C591.039 197.067 591.696 197.34 592.215 197.906C592.804 198.398 593.108 199.041 593.126 199.835L594.758 270.008C594.777 270.802 594.504 271.495 593.94 272.086C593.446 272.603 592.802 272.871 592.008 272.889L573.599 273.317Z" fill="#1E1E1E"/>
<path d="M606.374 225.748C605.724 225.763 605.178 225.559 604.734 225.136C604.291 224.713 604.095 224.067 604.147 223.199L607.175 199.617C607.295 198.603 607.672 197.691 608.303 196.882C609.005 195.999 610.041 195.541 611.413 195.509L626.357 195.162C627.007 195.147 627.553 195.351 627.997 195.774C628.44 196.197 628.669 196.733 628.684 197.383C628.693 197.744 628.664 198.07 628.599 198.36L619.835 222.184C619.563 222.913 619.11 223.646 618.477 224.383C617.916 225.118 616.986 225.501 615.687 225.531L606.374 225.748Z" fill="#1E1E1E"/>
<path d="M419.396 316.363C419.107 316.37 418.855 316.284 418.64 316.104C418.451 315.898 418.354 315.651 418.347 315.362L417.899 296.116L411.116 296.274C410.827 296.28 410.575 296.194 410.36 296.015C410.171 295.809 410.073 295.561 410.067 295.272L409.944 289.987C409.937 289.698 410.024 289.459 410.203 289.271C410.409 289.056 410.656 288.945 410.945 288.938L433.109 288.423C433.399 288.416 433.638 288.516 433.827 288.722C434.041 288.901 434.152 289.135 434.159 289.424L434.282 294.709C434.288 294.998 434.189 295.25 433.984 295.465C433.804 295.654 433.569 295.751 433.28 295.758L426.497 295.916L426.944 315.162C426.951 315.451 426.852 315.703 426.646 315.918C426.466 316.107 426.232 316.204 425.943 316.211L419.396 316.363Z" fill="#1E1E1E"/>
<path d="M450.102 316.044C447.656 316.1 445.492 315.769 443.607 315.05C441.749 314.331 440.275 313.181 439.186 311.602C438.123 309.995 437.563 307.957 437.505 305.485L437.13 289.355C437.123 289.066 437.223 288.827 437.429 288.638C437.635 288.423 437.869 288.312 438.132 288.306L444.56 288.156C444.849 288.15 445.088 288.249 445.277 288.455C445.492 288.634 445.603 288.869 445.609 289.158L445.982 305.17C446.013 306.511 446.365 307.515 447.038 308.183C447.711 308.852 448.666 309.172 449.902 309.143C451.137 309.114 452.063 308.751 452.678 308.052C453.319 307.353 453.624 306.333 453.593 304.993L453.221 288.981C453.214 288.692 453.314 288.452 453.52 288.264C453.725 288.048 453.973 287.937 454.262 287.931L460.651 287.782C460.94 287.775 461.179 287.875 461.368 288.081C461.583 288.26 461.693 288.494 461.7 288.784L462.075 304.914C462.133 307.385 461.668 309.448 460.68 311.102C459.692 312.729 458.287 313.946 456.464 314.751C454.641 315.556 452.52 315.987 450.102 316.044Z" fill="#1E1E1E"/>
<path d="M475.906 315.049C475.644 315.055 475.405 314.968 475.19 314.789C474.975 314.584 474.864 314.336 474.857 314.047L474.263 288.491C474.256 288.202 474.356 287.963 474.562 287.774C474.767 287.559 475.001 287.448 475.264 287.442L486.78 287.174C489.068 287.121 491.061 287.417 492.759 288.061C494.484 288.705 495.836 289.713 496.815 291.084C497.794 292.456 498.308 294.193 498.357 296.296C498.406 298.4 497.973 300.146 497.058 301.535C496.143 302.898 494.838 303.915 493.144 304.586C491.476 305.256 489.498 305.618 487.21 305.671L483.464 305.758L483.652 313.843C483.659 314.132 483.559 314.384 483.354 314.599C483.174 314.788 482.94 314.885 482.65 314.892L475.906 315.049ZM483.158 299.412L486.866 299.326C487.628 299.308 488.267 299.07 488.782 298.61C489.324 298.124 489.583 297.395 489.56 296.422C489.543 295.686 489.317 295.02 488.882 294.425C488.448 293.83 487.731 293.545 486.732 293.568L483.025 293.654L483.158 299.412Z" fill="#1E1E1E"/>
<path d="M503.174 314.415C502.911 314.421 502.672 314.334 502.458 314.155C502.243 313.95 502.132 313.702 502.125 313.413L501.531 287.857C501.524 287.568 501.623 287.329 501.83 287.14C502.035 286.925 502.269 286.814 502.532 286.808L521.857 286.358C522.146 286.352 522.398 286.451 522.613 286.657C522.828 286.836 522.939 287.07 522.945 287.359L523.054 292.013C523.06 292.276 522.96 292.515 522.755 292.73C522.549 292.945 522.302 293.056 522.013 293.063L509.826 293.346L509.917 297.251L521.236 296.987C521.525 296.981 521.777 297.08 521.992 297.286C522.207 297.465 522.318 297.699 522.324 297.988L522.424 302.247C522.43 302.537 522.331 302.789 522.125 303.004C521.919 303.193 521.672 303.291 521.383 303.298L510.064 303.561L510.157 307.544L522.658 307.253C522.948 307.247 523.2 307.346 523.415 307.551C523.63 307.757 523.741 308.004 523.748 308.293L523.855 312.908C523.862 313.197 523.763 313.449 523.557 313.664C523.351 313.853 523.104 313.951 522.814 313.958L503.174 314.415Z" fill="#1E1E1E"/>
<path d="M528.94 313.815C528.677 313.821 528.438 313.735 528.224 313.556C528.008 313.35 527.897 313.103 527.891 312.814L527.296 287.258C527.289 286.969 527.389 286.73 527.595 286.541C527.801 286.325 528.035 286.215 528.298 286.209L533.543 286.087C534.016 286.076 534.361 286.186 534.577 286.418C534.792 286.623 534.94 286.778 535.021 286.881L543.449 299.746L543.15 286.889C543.144 286.6 543.243 286.361 543.449 286.172C543.655 285.957 543.889 285.846 544.152 285.84L550.107 285.701C550.396 285.695 550.635 285.794 550.824 286C551.039 286.18 551.149 286.414 551.156 286.703L551.751 312.259C551.757 312.548 551.658 312.8 551.453 313.015C551.273 313.204 551.038 313.301 550.749 313.308L545.543 313.429C545.044 313.441 544.686 313.344 544.471 313.138C544.255 312.907 544.107 312.739 544.025 312.636L535.615 300.52L535.897 312.628C535.903 312.917 535.804 313.169 535.598 313.384C535.419 313.573 535.184 313.67 534.895 313.677L528.94 313.815Z" fill="#1E1E1E"/>
<path d="M567.656 313.309C564.896 313.374 562.586 313.046 560.728 312.326C558.895 311.58 557.505 310.599 556.556 309.385C555.632 308.144 555.128 306.827 555.043 305.435C555.038 305.198 555.112 304.999 555.266 304.838C555.42 304.676 555.616 304.593 555.852 304.587L562.123 304.441C562.491 304.433 562.782 304.492 562.995 304.618C563.208 304.719 563.435 304.871 563.677 305.076C563.92 305.36 564.202 305.629 564.524 305.885C564.845 306.114 565.257 306.302 565.76 306.448C566.263 306.568 566.843 306.62 567.5 306.605C568.71 306.577 569.639 306.397 570.289 306.067C570.939 305.709 571.257 305.242 571.243 304.663C571.233 304.216 571.04 303.853 570.665 303.572C570.317 303.291 569.719 303.041 568.872 302.824C568.025 302.607 566.876 302.384 565.424 302.155C563.391 301.86 561.631 301.401 560.144 300.778C558.655 300.129 557.504 299.248 556.689 298.136C555.899 296.997 555.485 295.586 555.446 293.903C555.406 292.194 555.844 290.671 556.76 289.335C557.702 287.998 559.02 286.941 560.711 286.165C562.43 285.389 564.432 284.974 566.72 284.92C568.613 284.876 570.288 285.087 571.746 285.553C573.23 286.019 574.481 286.647 575.499 287.439C576.516 288.204 577.299 289.041 577.846 289.949C578.393 290.857 578.69 291.732 578.735 292.572C578.741 292.809 578.654 293.021 578.474 293.21C578.32 293.371 578.138 293.454 577.927 293.459L571.341 293.612C571.026 293.62 570.749 293.574 570.509 293.474C570.297 293.374 570.095 293.207 569.906 292.975C569.766 292.61 569.43 292.289 568.897 292.012C568.364 291.735 567.691 291.606 566.876 291.625C565.982 291.646 565.302 291.819 564.836 292.146C564.369 292.446 564.143 292.885 564.156 293.464C564.165 293.858 564.318 294.197 564.614 294.479C564.91 294.762 565.429 295.013 566.17 295.232C566.911 295.425 567.942 295.638 569.263 295.87C571.769 296.18 573.793 296.66 575.334 297.308C576.901 297.955 578.052 298.823 578.788 299.911C579.523 300.998 579.91 302.37 579.949 304.027C579.992 305.893 579.491 307.51 578.444 308.876C577.397 310.242 575.936 311.315 574.06 312.095C572.21 312.848 570.075 313.253 567.656 313.309Z" fill="#1E1E1E"/>
<path d="M584.554 312.522C584.291 312.528 584.052 312.441 583.837 312.262C583.622 312.057 583.511 311.809 583.504 311.52L582.91 285.964C582.903 285.675 583.003 285.436 583.209 285.247C583.414 285.032 583.649 284.921 583.912 284.915L603.236 284.466C603.525 284.459 603.778 284.558 603.993 284.764C604.207 284.943 604.318 285.177 604.325 285.466L604.433 290.12C604.439 290.383 604.34 290.622 604.134 290.837C603.929 291.052 603.681 291.163 603.392 291.17L591.206 291.454L591.297 295.358L602.615 295.095C602.904 295.088 603.157 295.187 603.372 295.393C603.587 295.572 603.697 295.806 603.704 296.095L603.803 300.355C603.81 300.644 603.71 300.896 603.505 301.111C603.299 301.3 603.051 301.398 602.762 301.405L591.443 301.668L591.536 305.651L604.038 305.361C604.327 305.354 604.579 305.453 604.794 305.659C605.01 305.864 605.121 306.111 605.127 306.401L605.235 311.015C605.241 311.304 605.142 311.556 604.937 311.772C604.731 311.96 604.483 312.058 604.194 312.065L584.554 312.522Z" fill="#1E1E1E"/>
<path d="M620.227 312.087C617.467 312.151 615.157 311.823 613.299 311.104C611.467 310.357 610.076 309.376 609.127 308.162C608.204 306.921 607.7 305.604 607.615 304.212C607.609 303.975 607.683 303.776 607.837 303.615C607.991 303.453 608.187 303.37 608.423 303.364L614.694 303.219C615.062 303.21 615.353 303.269 615.566 303.396C615.779 303.496 616.006 303.648 616.248 303.853C616.491 304.137 616.774 304.407 617.095 304.662C617.416 304.892 617.828 305.079 618.332 305.225C618.834 305.345 619.414 305.398 620.071 305.382C621.281 305.354 622.211 305.175 622.861 304.844C623.51 304.487 623.828 304.019 623.814 303.441C623.804 302.994 623.611 302.63 623.237 302.349C622.888 302.068 622.29 301.819 621.444 301.602C620.597 301.385 619.447 301.161 617.995 300.932C615.963 300.637 614.203 300.179 612.715 299.555C611.227 298.906 610.075 298.025 609.26 296.913C608.471 295.774 608.056 294.363 608.017 292.68C607.977 290.971 608.415 289.449 609.331 288.112C610.274 286.775 611.591 285.718 613.283 284.942C615.001 284.166 617.003 283.751 619.291 283.698C621.184 283.654 622.859 283.865 624.317 284.331C625.801 284.796 627.052 285.424 628.07 286.216C629.087 286.982 629.87 287.819 630.417 288.727C630.964 289.635 631.261 290.509 631.307 291.35C631.312 291.586 631.225 291.799 631.045 291.987C630.891 292.148 630.709 292.232 630.499 292.236L623.913 292.39C623.597 292.397 623.32 292.351 623.081 292.251C622.868 292.151 622.667 291.985 622.477 291.752C622.337 291.387 622.001 291.066 621.468 290.789C620.936 290.512 620.262 290.383 619.447 290.402C618.553 290.423 617.873 290.597 617.407 290.923C616.941 291.223 616.714 291.663 616.727 292.241C616.737 292.635 616.889 292.974 617.185 293.256C617.481 293.539 618 293.79 618.742 294.009C619.483 294.203 620.514 294.415 621.834 294.648C624.341 294.958 626.364 295.437 627.905 296.085C629.472 296.732 630.623 297.6 631.359 298.688C632.095 299.776 632.482 301.148 632.52 302.804C632.564 304.671 632.062 306.287 631.015 307.653C629.968 309.019 628.507 310.092 626.631 310.872C624.781 311.626 622.646 312.03 620.227 312.087Z" fill="#1E1E1E"/>
<g filter="url(#filter2_d_1397_1659)">
<path d="M18.8768 44.1147C-2.41132 74.1909 17.3831 105.775 29.9413 117.807C27.0553 132.003 41.5735 148.734 49.1933 155.326C33.6524 178.805 56.2855 208.528 69.5447 220.455C37.8814 246.355 88.7459 249.679 118.136 248.104C199.556 252.365 210.958 224.43 206.481 209.93C229.927 197.092 227.99 172.175 224.091 161.322C265.571 130.149 251.143 98.4227 238.744 86.4561C245.202 5.34839 194.586 17.5237 168.471 33.7498C132.393 4.47362 104.283 30.7239 94.7374 47.5085C86.4194 42.2346 76.3759 47.5476 72.3939 50.8633C63.4249 36.082 40.1649 14.0384 18.8768 44.1147Z" fill="white"/>
<path d="M18.8768 44.1147C-2.41132 74.1909 17.3831 105.775 29.9413 117.807C27.0553 132.003 41.5735 148.734 49.1933 155.326C33.6524 178.805 56.2855 208.528 69.5447 220.455C37.8814 246.355 88.7459 249.679 118.136 248.104C199.556 252.365 210.958 224.43 206.481 209.93C229.927 197.092 227.99 172.175 224.091 161.322C265.571 130.149 251.143 98.4227 238.744 86.4561C245.202 5.34839 194.586 17.5237 168.471 33.7498C132.393 4.47362 104.283 30.7239 94.7374 47.5085C86.4194 42.2346 76.3759 47.5476 72.3939 50.8633C63.4249 36.082 40.1649 14.0384 18.8768 44.1147Z" stroke="white" stroke-width="0.223005"/>
</g>
<path d="M141.879 37.614C123.412 36.8042 107.229 49.2139 101.356 66.9758C97.9893 65.84 94.4254 65.1565 90.7235 64.9942C68.1318 64.0034 48.9583 82.7976 47.8981 106.972C47.1312 124.46 56.053 139.972 69.5993 147.591C67.5035 152.53 66.2315 157.965 65.9799 163.702C64.9198 187.877 82.3746 208.277 104.966 209.268C116.39 209.769 126.939 205.211 134.715 197.458C141.782 205.862 151.892 211.326 163.315 211.827C185.907 212.817 205.08 194.023 206.14 169.849C206.39 164.161 205.614 158.682 203.988 153.615C218.287 147.276 228.656 132.53 229.427 114.933C230.488 90.7583 213.033 70.3578 190.441 69.3671C186.739 69.2048 183.129 69.5736 179.676 70.4104C175.38 52.2025 160.346 38.4238 141.879 37.614Z" fill="#A9D0E4"/>
<path d="M135.977 164.311C124.487 166.036 116.104 183.074 117.618 193.157C119.132 203.24 124.653 210.915 126.807 213.742C123.948 215.606 117.281 219.565 115.731 225.984C114.807 235.357 143.107 231.375 154.617 229.593C168.188 227.932 191.483 219.81 190.465 212.432C190.388 211.919 189.6 206.322 189.474 200.669C189.423 198.352 189.37 196.113 189.329 194.384" stroke="#1E1E1E" stroke-width="2.67605"/>
<path d="M118.755 230.489C94.078 234.194 80.8708 230.921 80.3679 228.644C79.878 225.381 85.7393 220.886 88.7312 219.047C84.0953 212.971 81.2818 206.131 79.9231 197.082" stroke="#1E1E1E" stroke-width="2.67605"/>
<path d="M113.866 104.86C119.809 107.606 126.954 104.795 129.824 98.5821C126.945 104.814 119.809 107.606 113.866 104.86ZM113.866 104.86C107.923 102.114 105.432 94.8516 108.303 88.6384C105.423 94.8704 107.923 102.114 113.866 104.86Z" stroke="#1E1E1E" stroke-width="2.67605"/>
<circle cx="137.332" cy="93.6374" r="2.34155" transform="rotate(-8.53891 137.332 93.6374)" fill="#1E1E1E"/>
<circle cx="108.026" cy="79.4333" r="2.45305" transform="rotate(-8.53891 108.026 79.4333)" fill="#1E1E1E"/>
<path d="M182.964 75.3949L188.379 54.6908C185.615 51.9912 179.66 45.6757 181.37 43.3568C181.637 42.9945 183.513 41.5668 189.358 44.0725L191.798 51.7608C190.067 47.3683 187.207 38.3198 189.622 37.2666C191.148 36.7153 193.961 36.3896 200.817 48.6346C200.752 48.4834 199.402 38.8388 200.239 37.2835C200.616 36.5825 203.446 32.9358 210.711 51.3376C210.869 51.314 216.922 45.5722 220.107 47.5103C220.422 47.4631 226.218 60.3622 214.585 93.2008" stroke="#1E1E1E" stroke-width="2.67605"/>
<path d="M70.0246 84.6648L51.6526 63.7205C52.3863 60.7149 53.4541 54.4099 51.8556 53.2344C49.9756 52.5515 48.0231 54.6141 45.1044 61.004C45.9749 58.1924 47.2754 52.217 45.5127 50.8088C43.9724 50.2358 40.554 51.3603 39.203 60.4424C39.0449 60.4661 40.741 50.2384 37.5968 49.7453C35.801 49.2643 31.6113 52.9282 29.2187 71.432C29.5348 71.3845 24.1873 69.1312 23.3718 72.3098C22.8997 74.1501 28.8468 84.4133 54.712 117.205" stroke="#1E1E1E" stroke-width="2.67605"/>
<g filter="url(#filter3_d_1397_1659)">
<path d="M158.391 90.8055C128.766 112.717 137.692 148.906 145.858 164.262C138.677 176.844 147.236 197.276 152.412 205.92C130.309 223.362 142.513 258.672 151.378 274.147C113.203 288.847 160.478 307.909 188.887 315.603C264.892 345.11 284.457 322.142 284.738 306.969C311.023 302.105 316.975 277.832 316.665 266.304C365.812 249.665 362.028 215.018 353.993 199.775C385.489 124.754 333.604 120.491 303.724 127.737C278.611 88.6482 243.702 104.792 229.386 117.75C223.134 110.14 211.933 112.046 207.114 113.95C203.217 97.1055 188.016 68.8941 158.391 90.8055Z" fill="white"/>
<path d="M158.391 90.8055C128.766 112.717 137.692 148.906 145.858 164.262C138.677 176.844 147.236 197.276 152.412 205.92C130.309 223.362 142.513 258.672 151.378 274.147C113.203 288.847 160.478 307.909 188.887 315.603C264.892 345.11 284.457 322.142 284.738 306.969C311.023 302.105 316.975 277.832 316.665 266.304C365.812 249.665 362.028 215.018 353.993 199.775C385.489 124.754 333.604 120.491 303.724 127.737C278.611 88.6482 243.702 104.792 229.386 117.75C223.134 110.14 211.933 112.046 207.114 113.95C203.217 97.1055 188.016 68.8941 158.391 90.8055Z" stroke="white" stroke-width="0.223005"/>
</g>
<path d="M277.386 123.108C260.098 116.564 240.846 123.292 229.714 138.326C226.871 136.195 223.699 134.431 220.234 133.119C199.085 125.114 174.996 136.97 166.43 159.601C160.233 175.972 163.857 193.496 174.341 204.969C170.806 209.005 167.899 213.769 165.866 219.14C157.299 241.771 167.5 266.607 188.649 274.612C199.343 278.66 210.788 277.629 220.599 272.696C224.683 282.889 232.578 291.24 243.271 295.288C264.42 303.293 288.509 291.437 297.076 268.806C299.091 263.481 300.068 258.034 300.107 252.714C315.671 251.163 330.131 240.399 336.367 223.925C344.933 201.295 334.733 176.459 313.584 168.454C310.118 167.142 306.574 166.364 303.032 166.079C304.645 147.441 294.673 129.652 277.386 123.108Z" fill="#F5A3E0"/>
<path d="M232.172 241.614C220.752 239.666 207.493 253.233 205.778 263.284C204.063 273.334 206.895 282.349 208.052 285.707C204.762 286.585 197.212 288.265 193.739 293.878C189.937 302.494 217.983 307.547 229.439 309.447C242.81 312.106 267.408 311.665 268.748 304.338C268.836 303.826 269.837 298.263 271.483 292.854C272.158 290.638 272.808 288.494 273.308 286.839" stroke="#1E1E1E" stroke-width="2.67605"/>
<path d="M195.423 299.14C170.706 294.923 158.857 287.671 159.094 285.332C159.653 282.053 166.662 279.594 170.096 278.774C167.584 271.498 166.111 264.811 167.662 255.719" stroke="#1E1E1E" stroke-width="2.67605"/>
<path d="M229.75 178.223C234.536 182.689 242.202 182.253 246.871 177.249C242.187 182.269 234.536 182.689 229.75 178.223ZM229.75 178.223C224.963 173.756 224.869 166.079 229.538 161.075C224.854 166.094 224.963 173.756 229.75 178.223Z" stroke="#1E1E1E" stroke-width="2.67605"/>
<ellipse cx="255.531" cy="174.904" rx="2.45305" ry="2.34155" transform="rotate(9.68271 255.531 174.904)" fill="#1E1E1E"/>
<ellipse cx="232.137" cy="152.249" rx="2.34155" ry="2.45305" transform="rotate(9.68271 232.137 152.249)" fill="#1E1E1E"/>
<path d="M304.469 171.826L316.131 153.861C314.337 150.43 310.629 142.565 312.99 140.899C313.359 140.639 315.598 139.871 320.394 144.083L320.316 152.151C320.039 147.436 320.144 137.946 322.781 137.703C324.41 137.658 327.2 138.231 329.909 152.01C329.894 151.846 331.628 142.263 332.915 141.048C333.495 140.501 337.341 137.925 338.512 157.68C338.67 157.707 346.251 154.152 348.686 156.991C349.001 157.045 350.494 171.113 329.088 198.653" stroke="#1E1E1E" stroke-width="2.67605"/>
<path d="M194.295 145.316L183.468 119.69C185.099 117.063 188.075 111.407 186.931 109.792C185.368 108.557 182.879 109.907 178.128 115.067C179.828 112.668 182.921 107.397 181.694 105.509C180.417 104.485 176.836 104.487 172.727 112.693C172.57 112.666 177.363 103.479 174.546 102.03C172.999 101.013 167.897 103.187 159.864 120.019C160.177 120.073 155.827 116.265 154.065 119.03C153.044 120.631 155.463 132.235 169.674 171.453" stroke="#1E1E1E" stroke-width="2.67605"/>
<defs>
<filter id="filter0_d_1397_1659" x="267.334" y="7.98433" width="393.029" height="176.029" filterUnits="userSpaceOnUse" color-interpolation-filters="sRGB">
<feFlood flood-opacity="0" result="BackgroundImageFix"/>
<feColorMatrix in="SourceAlpha" type="matrix" values="0 0 0 0 0 0 0 0 0 0 0 0 0 0 0 0 0 0 127 0" result="hardAlpha"/>
<feMorphology radius="1.96154" operator="dilate" in="SourceAlpha" result="effect1_dropShadow_1397_1659"/>
<feOffset dy="0.871794"/>
<feGaussianBlur stdDeviation="2.93141"/>
<feComposite in2="hardAlpha" operator="out"/>
<feColorMatrix type="matrix" values="0 0 0 0 0 0 0 0 0 0 0 0 0 0 0 0 0 0 0.12 0"/>
<feBlend mode="normal" in2="BackgroundImageFix" result="effect1_dropShadow_1397_1659"/>
<feBlend mode="normal" in="SourceGraphic" in2="effect1_dropShadow_1397_1659" result="shape"/>
</filter>
<filter id="filter1_d_1397_1659" x="266.912" y="173.817" width="391.268" height="169.72" filterUnits="userSpaceOnUse" color-interpolation-filters="sRGB">
<feFlood flood-opacity="0" result="BackgroundImageFix"/>
<feColorMatrix in="SourceAlpha" type="matrix" values="0 0 0 0 0 0 0 0 0 0 0 0 0 0 0 0 0 0 127 0" result="hardAlpha"/>
<feMorphology radius="1.96154" operator="dilate" in="SourceAlpha" result="effect1_dropShadow_1397_1659"/>
<feOffset dy="0.871794"/>
<feGaussianBlur stdDeviation="2.93141"/>
<feComposite in2="hardAlpha" operator="out"/>
<feColorMatrix type="matrix" values="0 0 0 0 0 0 0 0 0 0 0 0 0 0 0 0 0 0 0.12 0"/>
<feBlend mode="normal" in2="BackgroundImageFix" result="effect1_dropShadow_1397_1659"/>
<feBlend mode="normal" in="SourceGraphic" in2="effect1_dropShadow_1397_1659" result="shape"/>
</filter>
<filter id="filter2_d_1397_1659" x="1.90735e-05" y="11.0917" width="261.1" height="246.927" filterUnits="userSpaceOnUse" color-interpolation-filters="sRGB">
<feFlood flood-opacity="0" result="BackgroundImageFix"/>
<feColorMatrix in="SourceAlpha" type="matrix" values="0 0 0 0 0 0 0 0 0 0 0 0 0 0 0 0 0 0 127 0" result="hardAlpha"/>
<feOffset/>
<feGaussianBlur stdDeviation="4.6831"/>
<feComposite in2="hardAlpha" operator="out"/>
<feColorMatrix type="matrix" values="0 0 0 0 0 0 0 0 0 0 0 0 0 0 0 0 0 0 0.25 0"/>
<feBlend mode="normal" in2="BackgroundImageFix" result="effect1_dropShadow_1397_1659"/>
<feBlend mode="normal" in="SourceGraphic" in2="effect1_dropShadow_1397_1659" result="shape"/>
</filter>
<filter id="filter3_d_1397_1659" x="127.611" y="73.3211" width="245.662" height="266.042" filterUnits="userSpaceOnUse" color-interpolation-filters="sRGB">
<feFlood flood-opacity="0" result="BackgroundImageFix"/>
<feColorMatrix in="SourceAlpha" type="matrix" values="0 0 0 0 0 0 0 0 0 0 0 0 0 0 0 0 0 0 127 0" result="hardAlpha"/>
<feOffset/>
<feGaussianBlur stdDeviation="4.6831"/>
<feComposite in2="hardAlpha" operator="out"/>
<feColorMatrix type="matrix" values="0 0 0 0 0 0 0 0 0 0 0 0 0 0 0 0 0 0 0.25 0"/>
<feBlend mode="normal" in2="BackgroundImageFix" result="effect1_dropShadow_1397_1659"/>
<feBlend mode="normal" in="SourceGraphic" in2="effect1_dropShadow_1397_1659" result="shape"/>
</filter>
</defs>
</svg>
