<svg width="183" height="182" viewBox="0 0 183 182" fill="none" xmlns="http://www.w3.org/2000/svg">
<path d="M11.053 9.11583C-8.80762 29.8046 2.77773 56.4012 11.053 67.1133C7.1912 77.706 16.4319 92.2617 21.5349 98.2155C6.86017 114.491 20.8453 139.984 29.6723 150.696C2.30879 166.971 41.0737 175.408 63.8766 177.591C126.051 190.28 138.055 170.097 136.285 158.42C155.815 151.248 157.203 131.846 155.456 123.042C190.984 103.843 183.546 77.7566 175.386 67.1133C189.729 5.43323 149.365 8.95492 127.389 18.4258C103.005 -8.27653 78.3353 8.67907 69.0487 20.4947C63.256 15.4742 54.9118 18.4028 51.4638 20.4947C46.2687 8.08139 30.9136 -11.5729 11.053 9.11583Z" fill="white" stroke="white" stroke-width="0.173565"/>
<path d="M106.576 18.322C92.4562 15.5646 78.5666 23.2459 71.9937 36.2381C69.5334 34.9748 66.8693 34.0368 64.0388 33.4841C46.7651 30.1108 29.8358 42.3604 26.2262 60.8444C23.615 74.2155 28.6892 87.1862 38.2349 94.6157C36.0511 98.1748 34.4441 102.211 33.5874 106.598C29.9777 125.082 41.0547 142.8 58.3284 146.174C67.0627 147.879 75.709 145.591 82.5898 140.521C87.0578 147.807 94.2078 153.18 102.942 154.886C120.216 158.259 137.145 146.01 140.755 127.526C141.604 123.177 141.64 118.87 140.974 114.783C152.712 111.556 162.397 101.404 165.025 87.9496C168.634 69.4656 157.557 51.7468 140.283 48.3735C137.453 47.8207 134.632 47.6875 131.877 47.9324C130.675 33.4218 120.696 21.0793 106.576 18.322Z" fill="#F5A3E0"/>
<path d="M87.4 115.16C78.3835 115.16 69.9865 127.305 69.9865 135.24C69.9865 143.176 73.3396 149.722 74.6668 152.146C72.2578 153.25 66.6849 155.528 64.7555 160.289C62.966 167.396 85.1447 167.602 94.183 167.56C104.79 167.85 123.604 164.291 123.672 158.495C123.672 158.09 123.713 153.692 124.268 149.326C124.495 147.537 124.713 145.807 124.88 144.472" stroke="black" stroke-width="2.08278"/>
<path d="M66.7362 164.105C47.2214 164.105 37.1811 160.092 37.0566 158.267C37.0566 155.678 42.1115 152.874 44.639 151.796C41.7592 146.542 39.7536 141.605 39.7536 134.426" stroke="black" stroke-width="2.08278"/>
<path d="M77.243 66.8423C81.4998 69.6425 87.3239 68.3048 90.2513 63.8544C87.315 68.3182 81.4998 69.6425 77.243 66.8423ZM77.243 66.8423C72.9861 64.0421 71.9084 58.1643 74.8359 53.714C71.8996 58.1778 72.9861 64.0421 77.243 66.8423Z" stroke="black" stroke-width="2.08278"/>
<ellipse cx="96.5889" cy="60.9212" rx="1.90921" ry="1.82243" fill="black"/>
<ellipse cx="75.675" cy="46.6021" rx="1.82243" ry="1.90921" fill="black"/>
<path d="M133.731 52.1537L140.327 36.844C138.502 34.4469 134.627 28.8978 136.22 27.3107C136.469 27.0627 138.087 26.1807 142.318 28.7845L143.314 34.9841C142.484 31.4032 141.322 24.1084 143.314 23.5768C144.558 23.3288 146.773 23.4032 150.656 33.6202C150.622 33.4962 150.698 25.9171 151.527 24.8167C151.9 24.3208 154.513 21.841 157.998 36.844C158.122 36.844 163.473 33.1242 165.713 34.9841C165.962 34.9841 168.949 45.5821 156.131 69.5126" stroke="black" stroke-width="2.08278"/>
<path d="M45.7349 46.237L34.0737 27.9936C34.9812 25.7651 36.5239 21.0357 35.4349 19.9462C34.0737 19.2033 32.3413 20.5652 29.3715 25.146C30.3614 23.0826 32.0443 18.6338 30.8564 17.3462C29.7427 16.7272 26.9956 17.1977 24.9167 24.0318C24.7929 24.0318 27.2678 16.3558 24.9167 15.613C23.5967 15.0352 19.9669 17.371 16.0071 31.3364C16.2546 31.3364 12.4185 28.9841 11.4286 31.3364C10.8554 32.6982 14.2297 41.2848 30.2669 69.5126" stroke="black" stroke-width="2.08278"/>
</svg>
