<svg width="404" height="404" viewBox="0 0 404 404" fill="none" xmlns="http://www.w3.org/2000/svg">
<g clip-path="url(#clip0_1287_635)">
<rect width="404" height="404" fill="white"/>
<line x1="23.455" y1="2.09235e-08" x2="23.455" y2="404" stroke="#D9D9D9" stroke-width="0.957346"/>
<line x1="50.8499" y1="2.09235e-08" x2="50.8499" y2="404" stroke="#D9D9D9" stroke-width="0.957346"/>
<line x1="78.2447" y1="2.09235e-08" x2="78.2447" y2="404" stroke="#D9D9D9" stroke-width="0.957346"/>
<line x1="105.64" y1="2.09235e-08" x2="105.639" y2="404" stroke="#D9D9D9" stroke-width="0.957346"/>
<line x1="133.034" y1="2.09235e-08" x2="133.034" y2="404" stroke="#D9D9D9" stroke-width="0.957346"/>
<line x1="160.429" y1="2.09235e-08" x2="160.429" y2="404" stroke="#D9D9D9" stroke-width="0.957346"/>
<line x1="187.824" y1="2.09235e-08" x2="187.824" y2="404" stroke="#D9D9D9" stroke-width="0.957346"/>
<line x1="215.219" y1="2.09235e-08" x2="215.219" y2="404" stroke="#D9D9D9" stroke-width="0.957346"/>
<line x1="242.614" y1="2.09235e-08" x2="242.614" y2="404" stroke="#D9D9D9" stroke-width="0.957346"/>
<line x1="270.008" y1="2.09235e-08" x2="270.008" y2="404" stroke="#D9D9D9" stroke-width="0.957346"/>
<line x1="297.403" y1="2.09235e-08" x2="297.403" y2="404" stroke="#D9D9D9" stroke-width="0.957346"/>
<line x1="324.798" y1="2.09235e-08" x2="324.798" y2="404" stroke="#D9D9D9" stroke-width="0.957346"/>
<line x1="352.193" y1="2.09235e-08" x2="352.193" y2="404" stroke="#D9D9D9" stroke-width="0.957346"/>
<line x1="379.588" y1="2.09235e-08" x2="379.588" y2="404" stroke="#D9D9D9" stroke-width="0.957346"/>
<line x1="404" y1="25.3697" x2="-2.09234e-08" y2="25.3696" stroke="#D9D9D9" stroke-width="0.957346"/>
<line x1="404" y1="52.7646" x2="-2.09234e-08" y2="52.7645" stroke="#D9D9D9" stroke-width="0.957346"/>
<line x1="404" y1="80.1592" x2="-2.09234e-08" y2="80.1592" stroke="#D9D9D9" stroke-width="0.957346"/>
<line x1="404" y1="107.554" x2="-2.09234e-08" y2="107.554" stroke="#D9D9D9" stroke-width="0.957346"/>
<line x1="404" y1="134.949" x2="-2.09234e-08" y2="134.949" stroke="#D9D9D9" stroke-width="0.957346"/>
<line x1="404" y1="162.344" x2="-2.09234e-08" y2="162.344" stroke="#D9D9D9" stroke-width="0.957346"/>
<line x1="404" y1="189.739" x2="-2.09234e-08" y2="189.739" stroke="#D9D9D9" stroke-width="0.957346"/>
<line x1="404" y1="217.134" x2="-2.09234e-08" y2="217.134" stroke="#D9D9D9" stroke-width="0.957346"/>
<line x1="404" y1="244.528" x2="-2.09234e-08" y2="244.528" stroke="#D9D9D9" stroke-width="0.957346"/>
<line x1="404" y1="271.923" x2="-2.09234e-08" y2="271.923" stroke="#D9D9D9" stroke-width="0.957346"/>
<line x1="404" y1="299.318" x2="-2.09234e-08" y2="299.318" stroke="#D9D9D9" stroke-width="0.957346"/>
<line x1="404" y1="326.713" x2="-2.09234e-08" y2="326.713" stroke="#D9D9D9" stroke-width="0.957346"/>
<line x1="404" y1="354.108" x2="-2.09234e-08" y2="354.108" stroke="#D9D9D9" stroke-width="0.957346"/>
<line x1="404" y1="381.502" x2="-2.09234e-08" y2="381.502" stroke="#D9D9D9" stroke-width="0.957346"/>
</g>
<defs>
<clipPath id="clip0_1287_635">
<rect width="404" height="404" fill="white"/>
</clipPath>
</defs>
</svg>
