<svg width="282" height="191" viewBox="0 0 282 191" fill="none" xmlns="http://www.w3.org/2000/svg">
<path d="M193.421 175.712C202.582 183.404 220.95 193.442 240.052 187.112C236.115 184.651 229.78 179.46 226.502 173.316C257.879 166.934 281.5 139.07 281.5 105.663C281.5 70.8862 255.901 42.1159 222.602 37.3346C215.807 24.9681 202.7 16.5921 187.646 16.5921C180.672 16.5921 174.117 18.3894 168.413 21.5481C153.609 8.44707 134.178 0.5 112.9 0.5C78.2931 0.5 48.573 21.5212 35.6995 51.5476C15.4863 56.5684 0.5 74.9111 0.5 96.7704C0.5 116.609 12.8441 133.552 30.2365 140.267C35.7357 164.507 57.3223 182.595 83.114 182.595C93.5689 182.595 103.333 179.623 111.614 174.474C122.64 184.437 137.227 190.5 153.223 190.5C168.546 190.5 182.576 184.937 193.421 175.712Z" fill="#FCEE59" stroke="#1E1E1E"/>
<path d="M92.58 78.14C93.7373 78.532 94.624 79.1573 95.24 80.016C95.8747 80.856 96.192 81.836 96.192 82.956C96.192 84.7667 95.576 86.148 94.344 87.1C93.1307 88.0333 91.3667 88.5 89.052 88.5H80.68V68.9H88.436C90.5827 68.9 92.2347 69.348 93.392 70.244C94.568 71.14 95.156 72.456 95.156 74.192C95.156 75.0693 94.9227 75.8533 94.456 76.544C94.008 77.216 93.3827 77.748 92.58 78.14ZM84.516 72.176V76.852H88.128C89.1173 76.852 89.8733 76.684 90.396 76.348C90.9187 75.9933 91.18 75.3867 91.18 74.528C91.18 73.688 90.9093 73.0907 90.368 72.736C89.8453 72.3627 89.0987 72.176 88.128 72.176H84.516ZM88.912 85.224C91.1333 85.224 92.244 84.3467 92.244 82.592C92.244 80.8187 91.1333 79.932 88.912 79.932H84.516V85.224H88.912ZM102.426 68.9V85.084H111.554V88.5H98.5902V68.9H102.426ZM131.019 88.5H126.931L125.055 83.432H117.719L115.843 88.5H111.867L119.567 68.9H123.291L131.019 88.5ZM121.387 73.464L118.867 80.296H123.907L121.387 73.464ZM131.286 78.924H138.902V82.228H131.286V78.924ZM153.775 78.14C154.933 78.532 155.819 79.1573 156.435 80.016C157.07 80.856 157.387 81.836 157.387 82.956C157.387 84.7667 156.771 86.148 155.539 87.1C154.326 88.0333 152.562 88.5 150.247 88.5H141.875V68.9H149.631C151.778 68.9 153.43 69.348 154.587 70.244C155.763 71.14 156.351 72.456 156.351 74.192C156.351 75.0693 156.118 75.8533 155.651 76.544C155.203 77.216 154.578 77.748 153.775 78.14ZM145.711 72.176V76.852H149.323C150.313 76.852 151.069 76.684 151.591 76.348C152.114 75.9933 152.375 75.3867 152.375 74.528C152.375 73.688 152.105 73.0907 151.563 72.736C151.041 72.3627 150.294 72.176 149.323 72.176H145.711ZM150.107 85.224C152.329 85.224 153.439 84.3467 153.439 82.592C153.439 80.8187 152.329 79.932 150.107 79.932H145.711V85.224H150.107ZM163.621 68.9V85.084H172.749V88.5H159.785V68.9H163.621ZM192.214 88.5H188.126L186.25 83.432H178.914L177.038 88.5H173.062L180.762 68.9H184.486L192.214 88.5ZM182.582 73.464L180.062 80.296H185.102L182.582 73.464ZM192.481 78.924H200.097V82.228H192.481V78.924ZM92.58 114.14C93.7373 114.532 94.624 115.157 95.24 116.016C95.8747 116.856 96.192 117.836 96.192 118.956C96.192 120.767 95.576 122.148 94.344 123.1C93.1307 124.033 91.3667 124.5 89.052 124.5H80.68V104.9H88.436C90.5827 104.9 92.2347 105.348 93.392 106.244C94.568 107.14 95.156 108.456 95.156 110.192C95.156 111.069 94.9227 111.853 94.456 112.544C94.008 113.216 93.3827 113.748 92.58 114.14ZM84.516 108.176V112.852H88.128C89.1173 112.852 89.8733 112.684 90.396 112.348C90.9187 111.993 91.18 111.387 91.18 110.528C91.18 109.688 90.9093 109.091 90.368 108.736C89.8453 108.363 89.0987 108.176 88.128 108.176H84.516ZM88.912 121.224C91.1333 121.224 92.244 120.347 92.244 118.592C92.244 116.819 91.1333 115.932 88.912 115.932H84.516V121.224H88.912ZM102.426 104.9V121.084H111.554V124.5H98.5902V104.9H102.426ZM131.019 124.5H126.931L125.055 119.432H117.719L115.843 124.5H111.867L119.567 104.9H123.291L131.019 124.5ZM121.387 109.464L118.867 116.296H123.907L121.387 109.464ZM131.286 114.924H138.902V118.228H131.286V114.924ZM153.775 114.14C154.933 114.532 155.819 115.157 156.435 116.016C157.07 116.856 157.387 117.836 157.387 118.956C157.387 120.767 156.771 122.148 155.539 123.1C154.326 124.033 152.562 124.5 150.247 124.5H141.875V104.9H149.631C151.778 104.9 153.43 105.348 154.587 106.244C155.763 107.14 156.351 108.456 156.351 110.192C156.351 111.069 156.118 111.853 155.651 112.544C155.203 113.216 154.578 113.748 153.775 114.14ZM145.711 108.176V112.852H149.323C150.313 112.852 151.069 112.684 151.591 112.348C152.114 111.993 152.375 111.387 152.375 110.528C152.375 109.688 152.105 109.091 151.563 108.736C151.041 108.363 150.294 108.176 149.323 108.176H145.711ZM150.107 121.224C152.329 121.224 153.439 120.347 153.439 118.592C153.439 116.819 152.329 115.932 150.107 115.932H145.711V121.224H150.107ZM163.621 104.9V121.084H172.749V124.5H159.785V104.9H163.621ZM192.214 124.5H188.126L186.25 119.432H178.914L177.038 124.5H173.062L180.762 104.9H184.486L192.214 124.5ZM182.582 109.464L180.062 116.296H185.102L182.582 109.464Z" fill="#1E1E1E"/>
</svg>
