<svg width="477" height="454" viewBox="0 0 477 454" fill="none" xmlns="http://www.w3.org/2000/svg">
<path d="M238.5 0.5C286.776 0.5 327.612 34.7009 340.918 81.7246L341.055 82.208L341.537 82.0684C350.454 79.492 359.833 78.1182 369.513 78.1182C428.569 78.1182 476.5 129.309 476.5 192.527C476.5 238.539 451.103 278.19 414.508 296.356L414.105 296.557L414.262 296.978C419.089 310.01 421.742 324.219 421.742 339.091C421.742 402.309 373.811 453.5 314.755 453.5C284.889 453.5 257.877 440.413 238.463 419.298L238.095 418.898L237.727 419.298C218.313 440.413 191.299 453.5 161.434 453.5C102.377 453.5 54.4463 402.309 54.4463 339.091C54.4463 324.089 57.146 309.762 62.0537 296.637L62.2109 296.218L61.8115 296.016C25.582 277.697 0.50005 238.253 0.5 192.527C0.5 129.309 48.4308 78.1182 107.487 78.1182C117.167 78.1182 126.546 79.492 135.463 82.0684L135.945 82.208L136.082 81.7246C149.388 34.7009 190.224 0.5 238.5 0.5Z" fill="#EEBCD8" stroke="black"/>
</svg>
