<svg width="240" height="127" viewBox="0 0 240 127" fill="none" xmlns="http://www.w3.org/2000/svg">
<g filter="url(#filter0_d_1353_191)">
<path d="M154.352 66.0777C155.759 66.1299 157.164 66.3657 158.54 66.8035C162.081 67.9301 164.499 71.1884 164.565 74.8917C167.182 75.3925 169.459 77.0825 170.677 79.5196C170.725 79.6148 170.769 79.7109 170.813 79.806C173.086 78.9291 175.484 78.5065 177.94 78.5065C181.499 78.5065 184.953 79.3969 188.065 81.3076L188.067 81.3067C188.092 81.322 188.117 81.3386 188.142 81.354C188.15 81.3592 188.159 81.364 188.167 81.3692C188.431 81.5308 188.689 81.6987 188.943 81.8712C190.389 80.1273 192.481 79.0003 194.783 78.7811C196.589 78.6091 198.326 78.8158 199.934 79.2872L200.253 79.3852L200.671 79.5263C202.223 80.0805 203.687 80.9501 204.943 82.1542C205.868 81.0849 207.062 80.2364 208.446 79.7173C209.389 79.3639 210.287 79.1676 211.004 79.0481L211.332 78.9974C212.099 78.8868 212.858 78.836 213.604 78.836L214.207 78.8478C215.614 78.9 217.019 79.1358 218.395 79.5737C221.986 80.7163 224.424 84.0511 224.424 87.8189V97.5573C224.704 97.6552 224.98 97.7683 225.252 97.8961C227.693 99.0451 229.335 100.885 230.374 102.709H230.376C230.39 102.733 230.402 102.758 230.416 102.783C230.433 102.813 230.452 102.844 230.469 102.875C231.469 104.664 232.127 106.848 231.999 109.29C231.896 111.25 231.129 113.117 229.825 114.584C228.392 116.196 226.682 117.342 224.911 118.121C222.961 118.98 220.917 119.372 218.881 119.372H218.835C216.644 119.372 214.317 118.985 212.093 117.956C209.591 118.973 206.973 119.372 204.415 119.372C199.606 119.372 194.933 117.77 191.442 113.995C190.457 114.952 189.366 115.811 188.167 116.557C188.155 116.565 188.142 116.573 188.129 116.581C184.981 118.519 181.49 119.372 177.94 119.372C174.919 119.372 171.952 118.75 169.179 117.402C166.893 118.621 164.29 119.324 161.4 119.367C161.325 119.369 161.25 119.37 161.175 119.37C161.155 119.37 161.136 119.372 161.117 119.372C161.114 119.372 161.111 119.371 161.109 119.371C161.106 119.371 161.103 119.372 161.1 119.372C157.913 119.372 154.771 118.578 151.986 116.797C149.087 118.372 145.894 119.317 142.489 119.367C142.41 119.369 142.333 119.37 142.256 119.37C142.238 119.37 142.221 119.372 142.204 119.372C142.201 119.372 142.198 119.371 142.196 119.371C142.192 119.371 142.189 119.372 142.185 119.372C138.463 119.372 134.445 118.273 131.344 115.183C130.259 116.66 128.707 117.794 126.86 118.348C126.146 118.562 125.439 118.717 124.759 118.83C123.961 118.963 123.122 119.042 122.253 119.042C120.647 119.042 119.01 118.806 117.396 118.268C115.595 117.668 114.094 116.514 113.054 115.034C111.3 117.708 108.277 119.476 104.84 119.476H78.9018C75.7167 119.476 72.8866 117.959 71.0925 115.609C70.3949 116.05 69.6709 116.459 68.9184 116.83C68.9037 116.838 68.8883 116.845 68.8736 116.852C65.3069 118.586 61.4628 119.372 57.5044 119.372C52.9996 119.372 48.6196 118.366 44.7157 115.992C44.7009 115.983 44.6857 115.974 44.6709 115.965C40.8997 113.64 38.0438 110.374 36.1375 106.415C34.2417 102.477 33.4438 98.1611 33.4437 93.7093C33.4437 89.0207 34.2947 84.4998 36.2829 80.3815C36.2888 80.3691 36.2946 80.3566 36.3006 80.3443C38.2843 76.2846 41.1707 72.8807 44.9937 70.4158C48.8961 67.8998 53.2849 66.7259 57.8813 66.7258C61.4983 66.7258 65.0199 67.4684 68.2965 69.0774L68.2973 69.0765C68.3211 69.0879 68.3445 69.1006 68.3683 69.112C68.3928 69.1242 68.4182 69.1353 68.4426 69.1475L68.4418 69.1484C71.6804 70.7206 74.444 72.9932 76.5612 75.9572C77.1152 76.7328 77.5297 77.5847 77.7999 78.476L83.3861 72.6246C83.3877 72.6229 83.3895 72.6212 83.3911 72.6195L84.7853 71.1594L84.9662 70.9752C88.7355 67.2248 94.8174 67.1613 98.6641 70.8324L98.8491 71.0132L99.4786 71.6461H102.766C107.57 71.6461 111.566 75.0972 112.415 79.6556C114.275 78.9044 116.267 78.5065 118.342 78.5065L118.959 78.5191C120.956 78.5993 122.934 79.0725 124.769 79.997C127.051 78.9895 129.481 78.5065 131.96 78.5065C134.711 78.5065 137.473 79.0967 139.951 80.4533C140.019 80.2764 140.09 80.0985 140.168 79.921L140.302 79.6294C140.919 78.3495 141.829 77.2676 142.929 76.4489V75.0488C142.929 71.4237 145.189 68.1827 148.59 66.9294C150.405 66.2609 152.2 66.0667 153.749 66.0667L154.352 66.0777ZM57.8813 88.2719C57.2419 88.2719 57.0152 88.4093 56.8817 88.5008C56.6232 88.678 56.2719 89.0008 55.91 89.797C55.5759 90.532 55.272 91.6855 55.272 93.4735C55.272 95.1082 55.5323 96.1513 55.8027 96.796C56.0156 97.2511 56.217 97.4605 56.3941 97.5936C56.555 97.6718 56.9784 97.826 57.8813 97.826C58.811 97.826 59.1401 97.6456 59.1716 97.6283C59.6231 97.3795 60.1911 96.9471 60.8387 96.1538L61.0533 95.9011C63.0674 93.6173 66.1217 92.5751 69.0823 93.1119V92.1359C69.0208 92.1555 68.9595 92.1764 68.8972 92.1951C65.453 93.2284 61.7283 92.0238 59.5417 89.1692C59.1069 88.6016 58.8427 88.476 58.8133 88.462C58.5802 88.3505 58.3065 88.2719 57.8813 88.2719ZM103.932 86.914C104.553 86.0539 105.225 85.1906 105.955 84.3698C106.097 84.032 106.216 83.682 106.308 83.3211H103.932V86.914ZM98.855 16.3019C99.4958 11.8188 103.712 6.28413 110.587 7.4465L110.927 7.50903L111.323 7.59353C115.274 8.4872 119.155 10.9928 121.873 15.2946C126.609 15.6887 130.675 17.6111 133.93 20.4794L138.777 15.6909C140.72 12.6168 144.199 10.6439 148.08 10.8044L148.345 10.8188L148.891 10.8585C154.595 11.3128 162.264 13.1156 168.762 17.7104C175.907 22.7622 181.274 31.0111 180.932 42.7673C180.762 48.598 175.894 53.135 170.108 52.9552C167.141 52.8631 163.579 52.4435 159.894 51.4664C158.286 54.6714 156.019 57.8284 152.97 60.8405C144.053 69.6503 133.95 71.8112 125.054 70.4276C118.2 69.3618 112.336 66.2607 108.233 63.1271C106.81 62.1459 105.512 60.9974 104.347 59.7167C104.072 60.1737 103.757 60.6082 103.398 61.0112C101.965 62.6236 100.255 63.7698 98.4841 64.5491C96.5336 65.4074 94.4898 65.8006 92.4543 65.8006H92.4079C90.2171 65.8006 87.8897 65.4133 85.6658 64.3844C83.1643 65.4013 80.546 65.8006 77.9883 65.8006C73.1804 65.8006 68.5084 64.199 65.018 60.4257C64.0336 61.3816 62.9431 62.2399 61.7462 62.9851C61.7335 62.993 61.7209 63.0009 61.7082 63.0088C58.5597 64.9463 55.0686 65.8006 51.5186 65.8006C48.2256 65.8006 45.0119 65.0653 42.0583 63.4769C40.6022 64.5391 38.8247 65.1406 36.9588 65.1406H15.9426C11.1639 65.1406 7.29007 61.2667 7.29004 56.4881V22.466C7.29019 18.6205 9.82839 15.2366 13.52 14.1598C14.9557 13.7411 16.4962 13.4839 18.11 13.4839C19.6983 13.4839 21.3802 13.6977 23.0607 14.2579C26.5938 15.4356 28.9771 18.7418 28.9772 22.466V43.7357H31.8003C32.0015 40.7427 32.7845 37.8157 34.2887 35.0983C35.9659 32.0687 38.3265 29.562 41.3223 27.7479C44.4535 25.8389 47.926 24.9341 51.5186 24.9341C55.0784 24.9341 58.5327 25.8251 61.6448 27.7361L61.6457 27.7352C61.6633 27.7459 61.6804 27.7575 61.6981 27.7682C61.7139 27.778 61.7303 27.787 61.7462 27.7969L61.7454 27.7978C62.0083 27.9586 62.2656 28.1256 62.5185 28.2971C63.9645 26.5547 66.0554 25.4279 68.3565 25.2087C70.2825 25.0253 72.1293 25.2731 73.826 25.8129C75.5316 26.3556 77.1476 27.2702 78.5156 28.5819C79.4413 27.5126 80.6347 26.6641 82.0189 26.145C82.9615 25.7915 83.8596 25.5961 84.5766 25.4766L84.9053 25.4251C85.6716 25.3145 86.4314 25.2645 87.1775 25.2645L87.7799 25.2755C89.1874 25.3276 90.5923 25.5635 91.9685 26.0013C95.5589 27.1439 97.9974 30.4787 97.9974 34.2466V34.7536C98.3873 33.0196 98.9354 31.3185 99.6341 29.688C98.61 25.9343 98.3569 21.5955 98.8035 16.7396L98.855 16.3019Z" fill="white"/>
<path d="M15.9426 55.7642V21.7425C16.6966 21.5226 17.4191 21.4126 18.1102 21.4126C18.927 21.4126 19.6652 21.5226 20.3249 21.7425V51.6647H36.9588C37.1159 51.916 37.2101 52.3086 37.2415 52.8427C37.3044 53.3453 37.3201 53.8794 37.2887 54.4448C37.2572 54.9789 37.1473 55.4187 36.9588 55.7642H15.9426ZM51.5186 56.4239C49.3824 56.4239 47.4662 55.9213 45.7698 54.916C44.1048 53.8794 42.7854 52.4657 41.8116 50.6751C40.8692 48.8845 40.3979 46.8583 40.3979 44.5964C40.3979 42.3346 40.8849 40.3241 41.8587 38.5649C42.8326 36.8057 44.152 35.4234 45.8169 34.4182C47.5133 33.3815 49.4139 32.8632 51.5186 32.8632C53.6234 32.8632 55.5082 33.3815 57.1732 34.4182C58.8382 35.4234 60.1418 36.8057 61.0843 38.5649C62.0581 40.3241 62.545 42.3346 62.545 44.5964C62.545 46.8583 62.0581 48.8845 61.0843 50.6751C60.1418 52.4657 58.8382 53.8794 57.1732 54.916C55.5396 55.9213 53.6548 56.4239 51.5186 56.4239ZM51.4715 52.3715C53.482 52.3715 55.0841 51.6647 56.2779 50.251C57.503 48.8374 58.1156 46.9525 58.1156 44.5964C58.1156 43.4341 57.9428 42.366 57.5973 41.3922C55.7124 41.3293 54.0003 40.9524 52.461 40.2612C50.9532 39.5701 49.7594 38.6277 48.8798 37.434C47.6232 37.968 46.6337 38.879 45.9112 40.167C45.1886 41.4236 44.8274 42.9315 44.8274 44.6907C44.8274 46.9839 45.4242 48.8374 46.618 50.251C47.8431 51.6647 49.461 52.3715 51.4715 52.3715ZM77.9884 56.4239C74.9412 56.4239 72.6008 55.403 70.9673 53.361C69.3651 51.3191 68.5641 48.3504 68.5641 44.4551V39.0361C67.5902 39.5701 66.475 39.9942 65.2185 40.3084C63.9933 40.6225 62.6896 40.7796 61.3074 40.7796C59.7681 40.7796 58.433 40.5754 57.302 40.167C56.4539 39.8843 56.0298 39.3345 56.0298 38.5178C56.0298 37.9209 56.2025 37.4183 56.5481 37.0099C56.8622 36.6015 57.2392 36.3973 57.679 36.3973C57.8047 36.3973 57.9146 36.413 58.0089 36.4444C58.1031 36.4444 58.1973 36.4601 58.2916 36.4915C58.8256 36.6172 59.3597 36.7271 59.8937 36.8214C60.4278 36.8842 60.9775 36.9156 61.543 36.9156C63.1451 36.9156 64.6687 36.5544 66.1138 35.8318C67.5902 35.0779 68.6112 34.1669 69.1767 33.0988C69.8364 33.036 70.5118 33.1145 71.2029 33.3344C71.894 33.5543 72.4437 33.9313 72.8521 34.4653V44.4079C72.8521 47.141 73.2919 49.1358 74.1715 50.3924C75.0511 51.6175 76.4334 52.2301 78.3182 52.2301C82.8105 52.2301 85.0566 48.9473 85.0566 42.3817V33.5229C85.3079 33.4286 85.6221 33.3501 85.999 33.2873C86.376 33.2244 86.7687 33.193 87.1771 33.193C87.931 33.193 88.6535 33.303 89.3447 33.5229V47.0939C89.3447 48.7588 89.596 50.0625 90.0986 51.0049C90.6326 51.916 91.5122 52.3715 92.7374 52.3715C93.083 52.3715 93.4599 52.2929 93.8683 52.1359C94.2767 51.9788 94.7008 51.7432 95.1406 51.429C95.6746 51.6804 96.1144 52.1202 96.46 52.7484C96.8056 53.3453 96.9626 53.9422 96.9312 54.5391C96.4286 55.1045 95.7846 55.56 94.9992 55.9056C94.2139 56.2511 93.3657 56.4239 92.4547 56.4239H92.4076C89.3918 56.4239 87.3498 55.1045 86.2818 52.4657C85.4022 53.7537 84.2712 54.7433 82.889 55.4344C81.5068 56.0941 79.8732 56.4239 77.9884 56.4239Z" fill="#0E0D0A"/>
<ellipse cx="120.054" cy="41.001" rx="14.1068" ry="17.1297" fill="#496642"/>
<path d="M107.42 17.5317C106.222 30.5532 111.392 34.326 115.26 34.7253C116.193 34.8216 116.924 34.0359 116.977 33.0993C117.674 20.7589 112.858 16.7149 109.24 15.9955C108.299 15.8084 107.508 16.5757 107.42 17.5317Z" fill="#0E0D0A"/>
<path d="M146.888 19.8406L111.621 54.6851C117.667 60.3266 133.184 68.2247 146.888 54.6851C160.592 41.1455 152.598 25.8139 146.888 19.8406Z" fill="#FFA21F"/>
<path d="M145.815 21.1057C143.905 39.0668 160.262 43.993 170.376 44.3072C171.401 44.3391 172.252 43.5414 172.282 42.5159C172.782 25.3326 157.243 20.079 147.773 19.4524C146.78 19.3867 145.92 20.1162 145.815 21.1057Z" fill="#0E0D0A"/>
<path d="M57.5043 110.975C54.3001 110.975 51.5356 110.268 49.2109 108.854C46.9177 107.441 45.1585 105.462 43.9333 102.917C42.7082 100.372 42.0956 97.3881 42.0956 93.9639C42.0956 90.3198 42.7553 87.1313 44.0747 84.3982C45.4255 81.6338 47.2947 79.4819 49.6822 77.9426C52.0696 76.4033 54.8027 75.6336 57.8813 75.6336C60.3316 75.6336 62.562 76.1363 64.5725 77.1415C66.6145 78.1154 68.2637 79.4819 69.5203 81.2411C69.3632 81.8066 68.9548 82.3877 68.2951 82.9846C67.6669 83.5815 67.0386 83.9741 66.4103 84.1626C65.2794 82.6862 63.9914 81.6024 62.5463 80.9112C61.1013 80.2201 59.5463 79.8746 57.8813 79.8746C55.6509 79.8746 53.6875 80.4557 51.9911 81.6181C50.2947 82.7804 48.9753 84.3982 48.0329 86.4716C47.0905 88.5449 46.6193 90.9638 46.6193 93.7283C46.6193 96.3357 47.0433 98.6132 47.8915 100.561C48.7711 102.509 50.0434 104.032 51.7084 105.132C53.4047 106.2 55.4624 106.734 57.8813 106.734C59.9861 106.734 61.8081 106.31 63.3474 105.462C64.8867 104.613 66.2846 103.42 67.5412 101.88C68.1381 102.069 68.7507 102.414 69.3789 102.917C70.0072 103.42 70.447 103.922 70.6983 104.425C69.2533 106.561 67.3841 108.195 65.0909 109.326C62.829 110.425 60.3002 110.975 57.5043 110.975Z" fill="#0E0D0A"/>
<path d="M112.169 97.875C111.478 97.7179 110.834 97.4509 110.237 97.0739C109.64 96.6969 109.138 96.1786 108.729 95.5189L110.331 93.1157C111.839 90.8853 113.19 89.3774 114.384 88.5921C115.609 87.8067 116.928 87.414 118.342 87.414C119.756 87.414 120.949 87.8381 121.923 88.6863C122.897 89.5031 123.573 90.6183 123.95 92.0319C124.829 90.5554 125.96 89.4245 127.342 88.6392C128.725 87.8224 130.264 87.414 131.96 87.414C134.411 87.414 136.295 88.2151 137.615 89.8172C138.966 91.4193 139.641 93.6655 139.641 96.5556V102.069C139.641 103.797 139.861 105.037 140.301 105.791C140.772 106.545 141.51 106.922 142.515 106.922C142.955 106.922 143.285 107.111 143.505 107.488C143.756 107.865 143.882 108.367 143.882 108.996C143.882 109.498 143.741 109.954 143.458 110.362C143.207 110.771 142.782 110.975 142.186 110.975C137.63 110.975 135.353 108.179 135.353 102.587V96.5556C135.353 93.1628 134.018 91.4665 131.348 91.4665C129.965 91.4665 128.74 92.0162 127.672 93.1157C126.635 94.2152 125.819 95.7388 125.222 97.6865C124.656 99.6342 124.374 101.896 124.374 104.472V110.315C124.059 110.409 123.714 110.488 123.337 110.551C122.96 110.613 122.599 110.645 122.253 110.645C121.499 110.645 120.792 110.535 120.133 110.315V95.2833C120.133 94.0581 119.976 93.1157 119.661 92.456C119.347 91.7963 118.782 91.4665 117.965 91.4665C117.494 91.4665 116.96 91.6864 116.363 92.1262C115.798 92.5346 115.028 93.4927 114.054 95.0006L112.169 97.875ZM142.534 106.922C143.32 106.922 144.215 106.687 145.22 106.215C146.257 105.744 147.262 104.943 148.236 103.812C149.21 102.681 150.011 101.158 150.639 99.2415C151.267 97.2938 151.582 94.8592 151.582 91.9377V87.414H148.095C147.875 86.9114 147.765 86.2831 147.765 85.5292C147.765 84.7752 147.875 84.1469 148.095 83.6443H151.582V75.3038C152.178 75.0839 152.901 74.9739 153.749 74.9739C154.503 74.9739 155.226 75.0839 155.917 75.3038V83.6443H162.938C163.189 84.1469 163.315 84.7752 163.315 85.5292C163.315 86.2831 163.189 86.9114 162.938 87.414H155.917V97.1682C155.917 100.31 156.388 102.729 157.33 104.425C158.304 106.09 159.671 106.922 161.43 106.922C162.341 106.922 162.796 107.613 162.796 108.996C162.796 109.593 162.639 110.064 162.325 110.409C162.042 110.786 161.634 110.975 161.1 110.975C159.058 110.975 157.33 110.394 155.917 109.231C154.534 108.069 153.513 106.451 152.854 104.378C151.534 106.64 149.917 108.305 148 109.373C146.084 110.441 144.152 110.975 142.204 110.975C141.796 110.975 141.466 110.771 141.215 110.362C140.963 109.985 140.838 109.514 140.838 108.949C140.838 108.352 140.979 107.865 141.262 107.488C141.545 107.111 141.969 106.922 142.534 106.922ZM161.447 106.922C162.484 106.922 163.489 106.435 164.463 105.462C165.468 104.456 166.316 103.121 167.008 101.456C166.882 100.702 166.819 99.9326 166.819 99.1473C166.819 96.8854 167.306 94.8749 168.28 93.1157C169.254 91.3565 170.573 89.9743 172.238 88.969C173.934 87.9324 175.835 87.414 177.94 87.414C180.044 87.414 181.929 87.9324 183.594 88.969C185.259 89.9743 186.563 91.3565 187.505 93.1157C188.479 94.8749 188.966 96.8854 188.966 99.1473C188.966 101.409 188.479 103.435 187.505 105.226C186.563 107.017 185.259 108.43 183.594 109.467C181.961 110.472 180.076 110.975 177.94 110.975C176.023 110.975 174.28 110.566 172.709 109.75C171.17 108.901 169.898 107.755 168.892 106.31C166.945 109.42 164.353 110.975 161.117 110.975C160.709 110.975 160.379 110.786 160.128 110.409C159.876 110.032 159.751 109.545 159.751 108.949C159.751 107.598 160.316 106.922 161.447 106.922ZM177.893 106.922C179.903 106.922 181.505 106.215 182.699 104.802C183.924 103.388 184.537 101.503 184.537 99.1473C184.537 97.9849 184.364 96.9169 184.018 95.943C182.134 95.8802 180.421 95.5032 178.882 94.8121C177.374 94.121 176.181 93.1785 175.301 91.9848C174.044 92.5188 173.055 93.4299 172.332 94.7178C171.61 95.9744 171.248 97.4823 171.248 99.2415C171.248 101.535 171.845 103.388 173.039 104.802C174.264 106.215 175.882 106.922 177.893 106.922ZM204.415 110.975C201.368 110.975 199.028 109.954 197.394 107.912C195.792 105.87 194.991 102.901 194.991 99.0059V93.5869C194.017 94.121 192.902 94.5451 191.645 94.8592C190.42 95.1734 189.117 95.3304 187.734 95.3304C186.195 95.3304 184.86 95.1262 183.729 94.7178C182.881 94.4351 182.457 93.8854 182.457 93.0686C182.457 92.4717 182.63 91.9691 182.975 91.5607C183.289 91.1523 183.666 90.9481 184.106 90.9481C184.232 90.9481 184.342 90.9638 184.436 90.9952C184.53 90.9952 184.624 91.011 184.719 91.0424C185.253 91.168 185.787 91.278 186.321 91.3722C186.855 91.435 187.405 91.4665 187.97 91.4665C189.572 91.4665 191.096 91.1052 192.541 90.3827C194.017 89.6287 195.038 88.7177 195.604 87.6496C196.263 87.5868 196.939 87.6653 197.63 87.8852C198.321 88.1051 198.871 88.4821 199.279 89.0161V98.9588C199.279 101.692 199.719 103.687 200.599 104.943C201.478 106.168 202.86 106.781 204.745 106.781C209.237 106.781 211.484 103.498 211.484 96.9326V88.0737C211.735 87.9795 212.049 87.9009 212.426 87.8381C212.803 87.7753 213.196 87.7439 213.604 87.7439C214.358 87.7439 215.081 87.8538 215.772 88.0737V101.645C215.772 103.31 216.023 104.613 216.526 105.556C217.06 106.467 217.939 106.922 219.164 106.922C219.51 106.922 219.887 106.844 220.295 106.687C220.704 106.53 221.128 106.294 221.568 105.98C222.102 106.231 222.541 106.671 222.887 107.299C223.233 107.896 223.39 108.493 223.358 109.09C222.856 109.655 222.212 110.111 221.426 110.456C220.641 110.802 219.793 110.975 218.882 110.975H218.835C215.819 110.975 213.777 109.655 212.709 107.017C211.829 108.305 210.698 109.294 209.316 109.985C207.934 110.645 206.3 110.975 204.415 110.975Z" fill="#0E0D0A"/>
<path fill-rule="evenodd" clip-rule="evenodd" d="M77.7344 92.336V107.682C77.7344 109.417 79.1408 110.823 80.8758 110.823H88.059V101.375C88.059 100.73 88.5815 100.208 89.226 100.208H94.2831C94.9276 100.208 95.4501 100.73 95.4501 101.375V110.823H102.866C104.601 110.823 106.007 109.417 106.007 107.682V92.336C106.007 91.5281 105.696 90.7513 105.138 90.1669L103.933 88.904V83.3211C103.933 81.6516 102.579 80.2982 100.91 80.2982H99.9022C98.7892 80.2982 97.887 81.2005 97.887 82.3135L94.1444 78.5525C92.8983 77.3003 90.865 77.3214 89.6452 78.5993L78.6034 90.1669C78.0456 90.7513 77.7344 91.5281 77.7344 92.336Z" fill="#FFA21F"/>
<path d="M91.0396 87.2045C91.519 86.6771 92.355 86.6989 92.8063 87.2505L95.4506 90.4825H88.0596L91.0396 87.2045Z" fill="#F6F6F6"/>
<path d="M95.4506 90.4825H88.0596V93.011C88.0596 93.6555 88.5821 94.178 89.2266 94.178H94.2836C94.9282 94.178 95.4506 93.6555 95.4506 93.011V90.4825Z" fill="#F6F6F6"/>
</g>
<defs>
<filter id="filter0_d_1353_191" x="0.000325203" y="-1.04904e-05" width="239.304" height="126.766" filterUnits="userSpaceOnUse" color-interpolation-filters="sRGB">
<feFlood flood-opacity="0" result="BackgroundImageFix"/>
<feColorMatrix in="SourceAlpha" type="matrix" values="0 0 0 0 0 0 0 0 0 0 0 0 0 0 0 0 0 0 127 0" result="hardAlpha"/>
<feOffset/>
<feGaussianBlur stdDeviation="3.64486"/>
<feComposite in2="hardAlpha" operator="out"/>
<feColorMatrix type="matrix" values="0 0 0 0 0 0 0 0 0 0 0 0 0 0 0 0 0 0 0.25 0"/>
<feBlend mode="normal" in2="BackgroundImageFix" result="effect1_dropShadow_1353_191"/>
<feBlend mode="normal" in="SourceGraphic" in2="effect1_dropShadow_1353_191" result="shape"/>
</filter>
</defs>
</svg>
