<svg width="52" height="52" viewBox="0 0 52 52" fill="none" xmlns="http://www.w3.org/2000/svg">
<rect x="0.0421429" y="-0.70585" width="35.2082" height="35.2082" rx="17.6041" transform="matrix(0.747993 -0.663707 -0.663707 -0.747993 23.5739 49.9094)" fill="#FCEE59"/>
<rect x="0.0421429" y="-0.70585" width="35.2082" height="35.2082" rx="17.6041" transform="matrix(0.747993 -0.663707 -0.663707 -0.747993 23.5739 49.9094)" stroke="black"/>
<path d="M21.9396 31.7168C23.246 32.1511 24.6437 32.234 25.9923 31.9572C27.341 31.6804 28.593 31.0538 29.6229 30.1401C30.6527 29.2264 31.4241 28.0579 31.8595 26.7519C32.2949 25.4458 32.3791 24.0482 32.1036 22.6993" stroke="black" stroke-linecap="round" stroke-linejoin="round"/>
<path d="M26.5983 20.7437C26.1392 21.151 25.4369 21.109 25.0296 20.65C24.6223 20.1909 24.6643 19.4885 25.1234 19.0812C25.5824 18.6739 26.2848 18.7159 26.6921 19.175C27.0994 19.6341 27.0574 20.3364 26.5983 20.7437Z" fill="black"/>
<path d="M20.633 26.0367C20.1739 26.444 19.4716 26.402 19.0643 25.9429C18.657 25.4839 18.6989 24.7815 19.158 24.3742C19.6171 23.9669 20.3194 24.0089 20.7267 24.468C21.134 24.927 21.0921 25.6294 20.633 26.0367Z" fill="black"/>
</svg>
