<svg width="35" height="35" viewBox="0 0 35 35" fill="none" xmlns="http://www.w3.org/2000/svg">
<path d="M9.02093 2.76778C8.98588 0.750821 11.4398 -0.266611 12.8422 1.18342L19.6372 8.20945C20.2579 8.85113 21.1169 9.20661 22.0096 9.19114L31.7824 9.02113C33.7994 8.98608 34.8168 11.44 33.3668 12.8424L26.3407 19.6374C25.699 20.2582 25.3436 21.1171 25.359 22.0098L25.529 31.7826C25.5641 33.7996 23.1102 34.817 21.7078 33.367L14.9127 26.3409C14.292 25.6992 13.4331 25.3438 12.5404 25.3592L2.76758 25.5293C0.750618 25.5643 -0.266815 23.1104 1.18322 21.708L8.20925 14.9129C8.85092 14.2922 9.20638 13.4332 9.19094 12.5406L9.02093 2.76778Z" fill="#FCEE59" stroke="black"/>
</svg>
