<svg width="292" height="103" viewBox="0 0 292 103" fill="none" xmlns="http://www.w3.org/2000/svg">
<g filter="url(#filter0_d_1353_189)">
<path d="M203.484 4.52633C206.641 3.73963 209.982 4.23925 212.771 5.91396L215.587 7.60444C219.205 9.77736 221.297 13.5204 221.519 17.4376L223.138 19.4977C223.624 20.116 224.038 20.7681 224.388 21.4414C226.14 20.4782 228.153 19.9306 230.294 19.9306H244.875L245.651 19.9563C248.214 20.1182 250.634 21.0779 252.593 22.6614C254.701 20.9545 257.385 19.9307 260.31 19.9306H274.891C281.668 19.9306 287.162 25.4218 287.162 32.1951V78.6749C287.162 85.4484 281.668 90.9394 274.891 90.9394H260.31C257.462 90.9393 254.747 89.9509 252.591 88.2069C250.483 89.9138 247.8 90.9393 244.875 90.9394H238.653C238.469 91.1959 238.278 91.449 238.074 91.6923C235.982 94.1842 232.985 95.7427 229.742 96.0263L198.86 98.7279C195.618 99.0115 192.395 97.9956 189.902 95.9048C187.409 93.8139 185.849 90.8192 185.566 87.579L185.491 86.7183C184.656 86.7454 183.805 86.6894 182.95 86.5387L161.82 82.8155C160.125 87.5579 155.593 90.9531 150.265 90.9531H135.685C133.113 90.9531 130.726 90.1609 128.754 88.8092C126.782 90.1602 124.397 90.953 121.826 90.9531H107.244C103.537 90.9531 100.218 89.3069 97.9676 86.7098C92.5807 89.7561 86.3563 91.2815 79.7704 91.2816C70.2377 91.2816 61.5492 88.1087 55.0766 81.8864C53.6687 87.1086 48.9001 90.9531 43.2305 90.9531H28.6505C21.8737 90.9531 16.38 85.4619 16.3797 78.6885V56.0262C9.62733 55.9976 4.16227 50.519 4.16211 43.7633V32.2088C4.16211 25.4353 9.65589 19.9443 16.4328 19.9443H55.5799C58.6672 19.9445 61.4864 21.0862 63.6428 22.9676C68.5025 20.6555 73.981 19.484 79.7704 19.484C86.3867 19.4841 92.639 21.0223 98.0429 24.0969C100.291 21.551 103.58 19.9443 107.244 19.9443H121.826C124.397 19.9444 126.782 20.7357 128.754 22.0865C130.726 20.735 133.114 19.9443 135.685 19.9443H150.265C150.452 19.9443 150.637 19.948 150.822 19.9563C152.514 13.973 158.5 10.1256 164.758 11.2284L183.827 14.5871C184.454 12.8544 185.469 11.2683 186.817 9.96051C189.152 7.69518 192.292 6.44918 195.546 6.49742L198.831 6.54704C198.943 6.5487 199.054 6.55433 199.165 6.55901C200.445 5.61456 201.91 4.91861 203.484 4.52633Z" fill="white"/>
<path d="M16.4328 32.2103H55.5791V43.7645H43.2309V78.6896H28.6496V43.7645H16.4328V32.2103Z" fill="black"/>
<path d="M79.7697 31.7507C92.0522 31.7507 100.394 39.1034 102.299 50.0668H86.929C85.5497 46.9813 82.7911 45.2087 79.507 45.2087C74.5809 45.2087 71.5595 49.2133 71.5595 55.3843C71.5595 61.5553 74.5809 65.5599 79.507 65.5599C82.7911 65.5599 85.5497 63.7873 86.929 60.7018H102.299C100.394 71.6652 92.0522 79.0179 79.7697 79.0179C65.5168 79.0179 56.7811 69.2362 56.7811 55.3843C56.7811 41.5324 65.5168 31.7507 79.7697 31.7507Z" fill="black"/>
<path d="M135.684 60.5705H121.826V78.6896H107.244V32.2103H121.826V48.9507H135.684V32.2103H150.266V78.6896H135.684V60.5705Z" fill="black"/>
<path d="M191.136 40.1308L174.965 37.2817L173.974 42.9078L188.204 45.4155L186.299 56.2115L172.069 53.7037L170.929 60.1701L187.1 63.0192L185.08 74.4618L154.552 69.0819L162.627 23.3083L193.156 28.6882L191.136 40.1308Z" fill="black"/>
<path d="M225.632 49.0886L209.274 50.5197L209.773 56.2082L224.168 54.951L225.123 65.8717L210.729 67.1289L211.3 73.6675L227.659 72.2363L228.673 83.8102L197.79 86.5116L193.737 40.2096L224.621 37.5081L225.632 49.0886Z" fill="black"/>
<path d="M274.892 32.197V78.6764H260.31L244.875 55.3054V78.6764H230.294V32.197H244.875L260.31 55.9619V32.197H274.892Z" fill="black"/>
<path d="M206.452 16.4285L200.088 27.0165L202.903 28.7069L209.267 18.1189L206.452 16.4285Z" fill="#EFD857"/>
<path d="M211.461 24.4973L202.613 31.4492L204.642 34.0298L213.491 27.078L211.461 24.4973Z" fill="#EFD857"/>
<path d="M195.364 18.7622L195.231 27.7059L198.515 27.7548L198.648 18.8111L195.364 18.7622Z" fill="#EFD857"/>
</g>
<defs>
<filter id="filter0_d_1353_189" x="-0.000151157" y="-2.90871e-05" width="291.325" height="102.937" filterUnits="userSpaceOnUse" color-interpolation-filters="sRGB">
<feFlood flood-opacity="0" result="BackgroundImageFix"/>
<feColorMatrix in="SourceAlpha" type="matrix" values="0 0 0 0 0 0 0 0 0 0 0 0 0 0 0 0 0 0 127 0" result="hardAlpha"/>
<feOffset/>
<feGaussianBlur stdDeviation="2.08113"/>
<feComposite in2="hardAlpha" operator="out"/>
<feColorMatrix type="matrix" values="0 0 0 0 0 0 0 0 0 0 0 0 0 0 0 0 0 0 0.25 0"/>
<feBlend mode="normal" in2="BackgroundImageFix" result="effect1_dropShadow_1353_189"/>
<feBlend mode="normal" in="SourceGraphic" in2="effect1_dropShadow_1353_189" result="shape"/>
</filter>
</defs>
</svg>
