<svg width="178" height="154" viewBox="0 0 178 154" fill="none" xmlns="http://www.w3.org/2000/svg">
<path d="M2.7168 42.2041L88.9288 7.90906L175.141 42.2041" stroke="black" stroke-width="14.6979"/>
<ellipse cx="53.5752" cy="106.924" rx="32.4454" ry="39.3979" fill="#496642"/>
<path d="M48.9404 85.6214C48.9404 68.3601 62.8455 53.5647 81.3858 53.5647" stroke="black" stroke-width="13.9052" stroke-miterlimit="16" stroke-linecap="square"/>
<path d="M24.5165 52.9448C21.7623 82.894 33.6525 91.5713 42.5497 92.4897C44.6959 92.7113 46.376 90.9041 46.4978 88.75C48.1014 60.3674 37.0244 51.0661 28.703 49.4117C26.5379 48.9812 24.7187 50.746 24.5165 52.9448Z" fill="black"/>
<path d="M112.848 59.2373L31.8779 136.182C43.9564 150.049 80.9757 166.641 112.462 136.586C143.949 106.53 125.968 72.497 112.848 59.2373Z" fill="#FFA21F"/>
<path d="M110.688 62.4383C106.296 103.748 143.916 115.078 167.177 115.801C169.536 115.874 171.493 114.04 171.561 111.681C172.711 72.1599 136.971 60.0768 115.192 58.6357C112.908 58.4846 110.93 60.1624 110.688 62.4383Z" fill="black"/>
</svg>
