<svg width="284" height="224" viewBox="0 0 284 224" fill="none" xmlns="http://www.w3.org/2000/svg">
<path d="M66.7948 174.923C64.2986 174.923 62.2965 174.073 60.7884 172.375C59.2803 170.659 58.5262 168.258 58.5262 165.172C58.5262 162.104 59.2456 159.712 60.6844 157.996C62.1405 156.28 64.1513 155.422 66.7168 155.422C68.0689 155.422 69.2736 155.552 70.3311 155.812C70.5911 155.881 70.7991 156.028 70.9551 156.254C71.1284 156.479 71.2151 156.73 71.2151 157.008C71.2151 157.233 71.1198 157.415 70.9291 157.554C70.7558 157.675 70.5564 157.701 70.3311 157.632C69.3083 157.32 68.1642 157.164 66.8988 157.164C64.94 157.164 63.4059 157.866 62.2965 159.27C61.1871 160.674 60.6324 162.641 60.6324 165.172C60.6324 167.686 61.2044 169.653 62.3485 171.075C63.5099 172.479 65.0527 173.181 66.9768 173.181C68.2596 173.181 69.421 173.025 70.4611 172.713C70.6864 172.643 70.8858 172.678 71.0591 172.817C71.2498 172.938 71.3451 173.111 71.3451 173.337C71.3451 173.614 71.2585 173.865 71.0851 174.091C70.9291 174.299 70.7211 174.437 70.4611 174.507C69.2997 174.784 68.0776 174.923 66.7948 174.923ZM77.2288 174.377C77.0382 174.568 76.8041 174.663 76.5268 174.663C76.2494 174.663 76.0068 174.568 75.7987 174.377C75.6081 174.186 75.5127 173.952 75.5127 173.675V156.15C75.5127 155.872 75.6081 155.638 75.7987 155.448C76.0068 155.257 76.2494 155.161 76.5268 155.161C76.8041 155.161 77.0382 155.257 77.2288 155.448C77.4195 155.638 77.5149 155.872 77.5149 156.15V163.17C77.5149 163.187 77.5235 163.196 77.5409 163.196C77.5582 163.196 77.5755 163.187 77.5929 163.17C78.841 161.645 80.2884 160.882 81.9352 160.882C83.5126 160.882 84.6567 161.324 85.3674 162.208C86.0781 163.075 86.4335 164.539 86.4335 166.602V173.675C86.4335 173.952 86.3381 174.186 86.1475 174.377C85.9741 174.568 85.7488 174.663 85.4714 174.663C85.1941 174.663 84.96 174.568 84.7694 174.377C84.5787 174.186 84.4833 173.952 84.4833 173.675V166.94C84.4833 165.19 84.2493 164.019 83.7813 163.43C83.3306 162.823 82.5419 162.52 81.4151 162.52C80.5137 162.52 79.6383 162.953 78.789 163.82C77.9396 164.669 77.5149 165.545 77.5149 166.446V173.675C77.5149 173.952 77.4195 174.186 77.2288 174.377ZM96.7643 167.512C95.0482 167.512 93.7481 167.79 92.864 168.344C91.9973 168.899 91.564 169.679 91.564 170.685C91.564 171.465 91.7806 172.097 92.214 172.583C92.6647 173.051 93.2541 173.285 93.9821 173.285C95.2302 173.285 96.2616 172.869 97.0763 172.037C97.9084 171.205 98.3244 170.104 98.3244 168.734V167.746C98.3244 167.59 98.2464 167.512 98.0904 167.512H96.7643ZM93.5661 174.923C92.3873 174.923 91.4253 174.55 90.6799 173.805C89.9345 173.059 89.5618 172.071 89.5618 170.841C89.5618 169.402 90.1339 168.249 91.2779 167.382C92.422 166.516 94.2508 166.082 96.7643 166.082H98.0904C98.2464 166.082 98.3244 166.013 98.3244 165.874V165.38C98.3244 164.323 98.0817 163.586 97.5964 163.17C97.111 162.737 96.2529 162.52 95.0222 162.52C93.8261 162.52 92.5347 162.745 91.1479 163.196C90.9399 163.265 90.7492 163.239 90.5759 163.118C90.4025 162.997 90.3159 162.823 90.3159 162.598C90.3159 161.991 90.6019 161.601 91.1739 161.428C92.4567 161.064 93.7394 160.882 95.0222 160.882C97.0157 160.882 98.3938 161.246 99.1565 161.974C99.9365 162.702 100.327 164.011 100.327 165.9V173.727C100.327 173.987 100.231 174.212 100.041 174.403C99.8672 174.576 99.6505 174.663 99.3905 174.663C99.1305 174.663 98.9051 174.576 98.7145 174.403C98.5238 174.212 98.4284 173.987 98.4284 173.727L98.4024 172.375C98.4024 172.357 98.3938 172.349 98.3764 172.349C98.3418 172.349 98.3244 172.366 98.3244 172.401C97.3017 174.082 95.7156 174.923 93.5661 174.923ZM105.818 174.377C105.627 174.568 105.393 174.663 105.116 174.663C104.838 174.663 104.596 174.568 104.388 174.377C104.197 174.186 104.101 173.952 104.101 173.675V162.104C104.101 161.844 104.197 161.619 104.388 161.428C104.578 161.237 104.804 161.142 105.064 161.142C105.324 161.142 105.549 161.237 105.74 161.428C105.93 161.619 106.026 161.844 106.026 162.104L106.052 162.962C106.052 162.979 106.06 162.988 106.078 162.988C106.112 162.988 106.13 162.971 106.13 162.936C107.118 161.567 108.296 160.882 109.666 160.882C110.498 160.882 111.165 161.064 111.668 161.428C112.188 161.792 112.613 162.399 112.942 163.248C112.942 163.283 112.951 163.3 112.968 163.3C113.003 163.3 113.02 163.283 113.02 163.248C113.991 161.671 115.256 160.882 116.816 160.882C118.203 160.882 119.2 161.281 119.807 162.078C120.431 162.875 120.743 164.21 120.743 166.082V173.675C120.743 173.952 120.647 174.186 120.457 174.377C120.283 174.568 120.058 174.663 119.781 174.663C119.503 174.663 119.269 174.568 119.079 174.377C118.888 174.186 118.793 173.952 118.793 173.675V166.602C118.793 164.99 118.602 163.898 118.22 163.326C117.856 162.737 117.206 162.442 116.27 162.442C115.629 162.442 114.996 162.789 114.372 163.482C113.748 164.158 113.436 164.86 113.436 165.588V173.675C113.436 173.952 113.341 174.186 113.15 174.377C112.959 174.568 112.725 174.663 112.448 174.663C112.171 174.663 111.937 174.568 111.746 174.377C111.555 174.186 111.46 173.952 111.46 173.675V166.602C111.46 164.99 111.269 163.898 110.888 163.326C110.524 162.737 109.883 162.442 108.964 162.442C108.322 162.442 107.681 162.789 107.04 163.482C106.416 164.158 106.104 164.86 106.104 165.588V173.675C106.104 173.952 106.008 174.186 105.818 174.377ZM126.649 165.9V169.905C126.649 170.806 127.048 171.612 127.845 172.323C128.643 173.016 129.544 173.363 130.549 173.363C131.78 173.363 132.734 172.903 133.41 171.985C134.103 171.066 134.45 169.705 134.45 167.902C134.45 164.262 133.15 162.442 130.549 162.442C129.527 162.442 128.617 162.797 127.819 163.508C127.039 164.219 126.649 165.016 126.649 165.9ZM126.259 174.403C126.068 174.576 125.843 174.663 125.583 174.663C125.323 174.663 125.098 174.576 124.907 174.403C124.734 174.212 124.647 173.987 124.647 173.727V156.15C124.647 155.872 124.742 155.638 124.933 155.448C125.124 155.257 125.358 155.161 125.635 155.161C125.912 155.161 126.146 155.257 126.337 155.448C126.545 155.638 126.649 155.872 126.649 156.15V162.884C126.649 162.901 126.658 162.91 126.675 162.91C126.692 162.91 126.71 162.901 126.727 162.884C127.854 161.549 129.267 160.882 130.965 160.882C132.647 160.882 133.973 161.497 134.944 162.728C135.932 163.941 136.426 165.666 136.426 167.902C136.426 170.069 135.914 171.785 134.892 173.051C133.886 174.299 132.578 174.923 130.965 174.923C129.232 174.923 127.785 174.203 126.623 172.765C126.606 172.747 126.588 172.739 126.571 172.739C126.554 172.739 126.545 172.747 126.545 172.765V173.727C126.545 173.987 126.45 174.212 126.259 174.403ZM141.317 174.351C141.127 174.559 140.884 174.663 140.589 174.663C140.295 174.663 140.043 174.559 139.835 174.351C139.645 174.143 139.549 173.9 139.549 173.623V162.13C139.549 161.853 139.645 161.619 139.835 161.428C140.026 161.237 140.26 161.142 140.537 161.142C140.815 161.142 141.049 161.237 141.239 161.428C141.43 161.619 141.525 161.853 141.525 162.13V164.132C141.525 164.149 141.534 164.158 141.551 164.158C141.586 164.158 141.603 164.141 141.603 164.106C142.123 163.239 142.851 162.546 143.788 162.026C144.741 161.489 145.807 161.194 146.986 161.142C147.228 161.125 147.436 161.203 147.61 161.376C147.783 161.549 147.87 161.757 147.87 162C147.87 162.225 147.783 162.425 147.61 162.598C147.454 162.771 147.254 162.867 147.012 162.884C145.296 162.953 143.97 163.456 143.034 164.392C142.097 165.311 141.629 166.602 141.629 168.266V173.623C141.629 173.9 141.525 174.143 141.317 174.351ZM155.818 162.39C153.408 162.39 152.091 163.82 151.865 166.68C151.865 166.819 151.943 166.888 152.099 166.888H159.094C159.233 166.888 159.302 166.819 159.302 166.68C159.198 163.82 158.036 162.39 155.818 162.39ZM156.364 174.923C154.232 174.923 152.611 174.342 151.501 173.181C150.392 172.002 149.837 170.243 149.837 167.902C149.837 165.493 150.366 163.725 151.423 162.598C152.498 161.454 153.963 160.882 155.818 160.882C159.233 160.882 161.044 162.901 161.252 166.94C161.269 167.356 161.122 167.712 160.81 168.006C160.515 168.284 160.16 168.422 159.744 168.422H152.047C151.909 168.422 151.839 168.5 151.839 168.656C151.995 171.829 153.564 173.415 156.546 173.415C157.534 173.415 158.548 173.233 159.588 172.869C159.779 172.799 159.961 172.825 160.134 172.947C160.307 173.051 160.394 173.207 160.394 173.415C160.394 174.004 160.125 174.368 159.588 174.507C158.479 174.784 157.404 174.923 156.364 174.923ZM176.488 162.442C173.887 162.442 172.587 164.262 172.587 167.902C172.587 169.705 172.925 171.066 173.601 171.985C174.295 172.903 175.257 173.363 176.488 173.363C177.493 173.363 178.394 173.016 179.192 172.323C179.989 171.612 180.388 170.806 180.388 169.905V165.9C180.388 165.016 179.989 164.219 179.192 163.508C178.412 162.797 177.51 162.442 176.488 162.442ZM176.072 174.923C174.46 174.923 173.142 174.299 172.119 173.051C171.114 171.785 170.611 170.069 170.611 167.902C170.611 165.666 171.097 163.941 172.067 162.728C173.055 161.497 174.39 160.882 176.072 160.882C177.77 160.882 179.183 161.549 180.31 162.884C180.327 162.901 180.345 162.91 180.362 162.91C180.379 162.91 180.388 162.901 180.388 162.884V156.15C180.388 155.872 180.483 155.638 180.674 155.448C180.882 155.257 181.125 155.161 181.402 155.161C181.679 155.161 181.913 155.257 182.104 155.448C182.295 155.638 182.39 155.872 182.39 156.15V173.727C182.39 173.987 182.295 174.212 182.104 174.403C181.931 174.576 181.714 174.663 181.454 174.663C181.194 174.663 180.969 174.576 180.778 174.403C180.587 174.212 180.492 173.987 180.492 173.727V172.765C180.492 172.747 180.483 172.739 180.466 172.739C180.449 172.739 180.431 172.747 180.414 172.765C179.253 174.203 177.805 174.923 176.072 174.923ZM187.1 161.064C186.874 161.064 186.684 160.969 186.528 160.778C186.389 160.57 186.354 160.353 186.424 160.128L187.698 155.89C187.802 155.526 188.01 155.231 188.322 155.005C188.634 154.763 188.98 154.641 189.362 154.641C189.674 154.641 189.917 154.771 190.09 155.031C190.263 155.292 190.289 155.569 190.168 155.864L188.426 160.154C188.322 160.431 188.148 160.657 187.906 160.83C187.663 160.986 187.394 161.064 187.1 161.064ZM195.1 174.377C194.91 174.568 194.676 174.663 194.398 174.663C194.121 174.663 193.878 174.568 193.67 174.377C193.479 174.186 193.384 173.952 193.384 173.675V156.15C193.384 155.872 193.479 155.638 193.67 155.448C193.878 155.257 194.121 155.161 194.398 155.161C194.676 155.161 194.91 155.257 195.1 155.448C195.291 155.638 195.386 155.872 195.386 156.15V163.17C195.386 163.187 195.395 163.196 195.412 163.196C195.43 163.196 195.447 163.187 195.464 163.17C196.712 161.645 198.16 160.882 199.807 160.882C201.384 160.882 202.528 161.324 203.239 162.208C203.95 163.075 204.305 164.539 204.305 166.602V173.675C204.305 173.952 204.21 174.186 204.019 174.377C203.846 174.568 203.62 174.663 203.343 174.663C203.065 174.663 202.831 174.568 202.641 174.377C202.45 174.186 202.355 173.952 202.355 173.675V166.94C202.355 165.19 202.121 164.019 201.653 163.43C201.202 162.823 200.413 162.52 199.287 162.52C198.385 162.52 197.51 162.953 196.66 163.82C195.811 164.669 195.386 165.545 195.386 166.446V173.675C195.386 173.952 195.291 174.186 195.1 174.377ZM217.522 167.902C217.522 164.262 216.135 162.442 213.362 162.442C210.588 162.442 209.201 164.262 209.201 167.902C209.201 171.543 210.588 173.363 213.362 173.363C216.135 173.363 217.522 171.543 217.522 167.902ZM217.912 173.077C216.82 174.307 215.303 174.923 213.362 174.923C211.42 174.923 209.903 174.307 208.811 173.077C207.719 171.846 207.173 170.121 207.173 167.902C207.173 165.684 207.719 163.959 208.811 162.728C209.903 161.497 211.42 160.882 213.362 160.882C215.303 160.882 216.82 161.497 217.912 162.728C219.004 163.959 219.55 165.684 219.55 167.902C219.55 170.121 219.004 171.846 217.912 173.077ZM215.702 156.098L217.6 158.412C217.739 158.602 217.756 158.802 217.652 159.01C217.548 159.218 217.383 159.322 217.158 159.322C216.361 159.322 215.728 159.01 215.26 158.386L213.414 155.916C213.414 155.898 213.396 155.89 213.362 155.89L213.31 155.916L211.464 158.386C210.995 159.01 210.363 159.322 209.565 159.322C209.323 159.322 209.149 159.218 209.045 159.01C208.941 158.802 208.967 158.602 209.123 158.412L211.021 156.098C211.628 155.352 212.408 154.979 213.362 154.979C214.315 154.979 215.095 155.352 215.702 156.098ZM222.662 163.222C222.436 163.222 222.246 163.153 222.09 163.014C221.951 162.858 221.882 162.667 221.882 162.442C221.882 162.217 221.951 162.035 222.09 161.896C222.246 161.74 222.436 161.662 222.662 161.662H224.56C224.716 161.662 224.794 161.584 224.794 161.428V157.71C224.794 157.432 224.889 157.198 225.08 157.008C225.27 156.817 225.504 156.722 225.782 156.722C226.059 156.722 226.293 156.817 226.484 157.008C226.675 157.198 226.77 157.432 226.77 157.71V161.428C226.77 161.584 226.848 161.662 227.004 161.662H230.904C231.129 161.662 231.311 161.74 231.45 161.896C231.606 162.035 231.684 162.217 231.684 162.442C231.684 162.667 231.606 162.858 231.45 163.014C231.311 163.153 231.129 163.222 230.904 163.222H227.004C226.848 163.222 226.77 163.3 226.77 163.456V170.321C226.77 171.569 226.935 172.392 227.264 172.791C227.593 173.172 228.226 173.363 229.162 173.363C229.717 173.363 230.176 173.319 230.54 173.233C230.731 173.198 230.904 173.241 231.06 173.363C231.233 173.467 231.32 173.614 231.32 173.805C231.32 174.047 231.242 174.264 231.086 174.455C230.947 174.646 230.765 174.758 230.54 174.793C230.089 174.88 229.517 174.923 228.824 174.923C227.299 174.923 226.241 174.611 225.652 173.987C225.08 173.345 224.794 172.184 224.794 170.503V163.456C224.794 163.3 224.716 163.222 224.56 163.222H222.662ZM240.4 162.39C237.99 162.39 236.673 163.82 236.447 166.68C236.447 166.819 236.525 166.888 236.681 166.888H243.676C243.815 166.888 243.884 166.819 243.884 166.68C243.78 163.82 242.618 162.39 240.4 162.39ZM240.946 174.923C238.814 174.923 237.193 174.342 236.083 173.181C234.974 172.002 234.419 170.243 234.419 167.902C234.419 165.493 234.948 163.725 236.005 162.598C237.08 161.454 238.545 160.882 240.4 160.882C243.815 160.882 245.626 162.901 245.834 166.94C245.851 167.356 245.704 167.712 245.392 168.006C245.097 168.284 244.742 168.422 244.326 168.422H236.629C236.491 168.422 236.421 168.5 236.421 168.656C236.577 171.829 238.146 173.415 241.128 173.415C242.116 173.415 243.13 173.233 244.17 172.869C244.361 172.799 244.543 172.825 244.716 172.947C244.889 173.051 244.976 173.207 244.976 173.415C244.976 174.004 244.707 174.368 244.17 174.507C243.061 174.784 241.986 174.923 240.946 174.923ZM253.255 168.604C251.574 168.206 250.369 167.694 249.641 167.07C248.93 166.429 248.575 165.606 248.575 164.6C248.575 163.456 249 162.555 249.849 161.896C250.716 161.22 251.947 160.882 253.541 160.882C254.737 160.882 255.925 161.038 257.104 161.35C257.641 161.489 257.91 161.844 257.91 162.416C257.91 162.624 257.832 162.78 257.676 162.884C257.52 162.988 257.338 163.014 257.13 162.962C255.986 162.615 254.841 162.442 253.697 162.442C251.617 162.442 250.577 163.109 250.577 164.444C250.577 165.034 250.785 165.528 251.201 165.926C251.617 166.308 252.371 166.62 253.463 166.862C255.335 167.278 256.618 167.807 257.312 168.448C258.022 169.09 258.378 170.009 258.378 171.205C258.378 172.366 257.927 173.276 257.026 173.935C256.142 174.594 254.885 174.923 253.255 174.923C251.99 174.923 250.785 174.732 249.641 174.351C249.104 174.177 248.835 173.805 248.835 173.233C248.835 173.042 248.922 172.895 249.095 172.791C249.268 172.669 249.45 172.643 249.641 172.713C250.768 173.146 251.921 173.363 253.099 173.363C255.283 173.363 256.376 172.643 256.376 171.205C256.376 170.581 256.15 170.061 255.699 169.644C255.266 169.228 254.451 168.882 253.255 168.604ZM65.3568 204.51V211.765C65.3568 211.921 65.4175 212.007 65.5388 212.025C66.4055 212.163 67.2636 212.233 68.113 212.233C71.7186 212.233 73.5214 210.829 73.5214 208.02C73.5214 205.524 71.3719 204.276 67.0729 204.276H65.5648C65.4261 204.276 65.3568 204.354 65.3568 204.51ZM65.3568 196.58V202.404C65.3568 202.543 65.4261 202.612 65.5648 202.612H67.0729C70.8518 202.612 72.7413 201.503 72.7413 199.284C72.7413 198.209 72.3513 197.412 71.5712 196.892C70.7912 196.372 69.5518 196.112 67.853 196.112C67.1076 196.112 66.3449 196.181 65.5648 196.32C65.4261 196.354 65.3568 196.441 65.3568 196.58ZM64.7328 213.741C64.3167 213.689 63.97 213.507 63.6927 213.195C63.4153 212.865 63.2767 212.484 63.2767 212.051V196.294C63.2767 195.86 63.4067 195.488 63.6667 195.176C63.944 194.846 64.2907 194.656 64.7067 194.604C65.6601 194.482 66.7089 194.422 67.853 194.422C72.4293 194.422 74.7174 195.956 74.7174 199.024C74.7174 200.081 74.3621 201 73.6514 201.78C72.958 202.543 72.0133 203.054 70.8172 203.314C70.7998 203.314 70.7912 203.323 70.7912 203.34C70.7912 203.357 70.8085 203.366 70.8432 203.366C72.3339 203.609 73.4954 204.172 74.3274 205.056C75.1595 205.923 75.5755 206.972 75.5755 208.202C75.5755 212.016 73.088 213.923 68.113 213.923C66.8822 213.923 65.7555 213.862 64.7328 213.741ZM83.6271 201.39C81.2176 201.39 79.9002 202.82 79.6748 205.68C79.6748 205.819 79.7529 205.888 79.9089 205.888H86.9033C87.042 205.888 87.1114 205.819 87.1114 205.68C87.0074 202.82 85.8459 201.39 83.6271 201.39ZM84.1732 213.923C82.041 213.923 80.4202 213.342 79.3108 212.181C78.2014 211.002 77.6467 209.243 77.6467 206.902C77.6467 204.493 78.1754 202.725 79.2328 201.598C80.3076 200.454 81.7723 199.882 83.6271 199.882C87.042 199.882 88.8535 201.901 89.0615 205.94C89.0788 206.356 88.9315 206.712 88.6195 207.006C88.3248 207.284 87.9694 207.422 87.5534 207.422H79.8569C79.7182 207.422 79.6488 207.5 79.6488 207.656C79.8049 210.829 81.3736 212.415 84.3552 212.415C85.3432 212.415 86.3573 212.233 87.3974 211.869C87.5881 211.799 87.7701 211.825 87.9434 211.947C88.1168 212.051 88.2034 212.207 88.2034 212.415C88.2034 213.004 87.9348 213.368 87.3974 213.507C86.288 213.784 85.2132 213.923 84.1732 213.923ZM97.5428 201.442C94.9426 201.442 93.6425 203.262 93.6425 206.902C93.6425 208.705 93.9805 210.066 94.6566 210.985C95.3499 211.903 96.312 212.363 97.5428 212.363C98.5482 212.363 99.4496 212.016 100.247 211.323C101.044 210.612 101.443 209.806 101.443 208.905V204.9C101.443 204.016 101.044 203.219 100.247 202.508C99.4669 201.797 98.5655 201.442 97.5428 201.442ZM97.1267 213.923C95.5146 213.923 94.1972 213.299 93.1745 212.051C92.169 210.785 91.6663 209.069 91.6663 206.902C91.6663 204.666 92.1517 202.941 93.1224 201.728C94.1105 200.497 95.4453 199.882 97.1267 199.882C98.8255 199.882 100.238 200.549 101.365 201.884C101.382 201.901 101.4 201.91 101.417 201.91C101.434 201.91 101.443 201.901 101.443 201.884V195.15C101.443 194.872 101.538 194.638 101.729 194.448C101.937 194.257 102.18 194.161 102.457 194.161C102.734 194.161 102.968 194.257 103.159 194.448C103.35 194.638 103.445 194.872 103.445 195.15V212.727C103.445 212.987 103.35 213.212 103.159 213.403C102.986 213.576 102.769 213.663 102.509 213.663C102.249 213.663 102.024 213.576 101.833 213.403C101.642 213.212 101.547 212.987 101.547 212.727V211.765C101.547 211.747 101.538 211.739 101.521 211.739C101.504 211.739 101.486 211.747 101.469 211.765C100.308 213.203 98.8602 213.923 97.1267 213.923ZM119.713 204.718C118.379 205.602 117.434 206.391 116.879 207.084C116.324 207.778 116.047 208.471 116.047 209.165C116.047 210.153 116.394 210.915 117.087 211.453C117.798 211.99 118.812 212.259 120.129 212.259C121.169 212.259 122.08 212.137 122.86 211.895C123.657 211.635 124.48 211.193 125.33 210.569C125.451 210.482 125.46 210.387 125.356 210.283L120.051 204.744C119.947 204.64 119.835 204.632 119.713 204.718ZM117.841 198.244C117.841 198.798 117.98 199.327 118.257 199.83C118.535 200.315 119.167 201.078 120.155 202.118C120.277 202.239 120.398 202.248 120.519 202.144C121.837 201.243 122.704 200.532 123.12 200.012C123.536 199.475 123.744 198.885 123.744 198.244C123.744 197.55 123.492 197.013 122.99 196.632C122.487 196.25 121.75 196.06 120.779 196.06C119.861 196.06 119.141 196.259 118.621 196.658C118.101 197.056 117.841 197.585 117.841 198.244ZM120.051 213.923C118.058 213.923 116.541 213.524 115.501 212.727C114.478 211.912 113.967 210.751 113.967 209.243C113.967 208.289 114.314 207.362 115.007 206.46C115.7 205.542 116.879 204.528 118.543 203.418C118.665 203.366 118.665 203.279 118.543 203.158L118.387 202.976C117.434 201.988 116.758 201.13 116.359 200.402C115.978 199.674 115.787 198.954 115.787 198.244C115.787 197.1 116.229 196.181 117.113 195.488C118.015 194.777 119.237 194.422 120.779 194.422C122.357 194.422 123.562 194.751 124.394 195.41C125.243 196.068 125.668 196.978 125.668 198.14C125.668 199.076 125.373 199.934 124.784 200.714C124.212 201.494 123.18 202.395 121.689 203.418C121.568 203.505 121.559 203.6 121.663 203.704L126.006 208.306C126.04 208.341 126.075 208.35 126.11 208.332C126.144 208.315 126.162 208.289 126.162 208.254V203.782C126.162 203.505 126.248 203.271 126.422 203.08C126.612 202.889 126.847 202.794 127.124 202.794C127.401 202.794 127.635 202.889 127.826 203.08C128.017 203.271 128.112 203.505 128.112 203.782V210.309C128.112 210.482 128.155 210.612 128.242 210.699L130.192 212.753C130.348 212.909 130.374 213.099 130.27 213.325C130.183 213.55 130.027 213.663 129.802 213.663C128.97 213.663 128.268 213.359 127.696 212.753L126.968 211.973C126.881 211.851 126.769 211.843 126.63 211.947C124.532 213.264 122.34 213.923 120.051 213.923ZM141.762 204.51V211.765C141.762 211.921 141.823 212.007 141.944 212.025C142.811 212.163 143.669 212.233 144.519 212.233C148.124 212.233 149.927 210.829 149.927 208.02C149.927 205.524 147.778 204.276 143.479 204.276H141.97C141.832 204.276 141.762 204.354 141.762 204.51ZM141.762 196.58V202.404C141.762 202.543 141.832 202.612 141.97 202.612H143.479C147.258 202.612 149.147 201.503 149.147 199.284C149.147 198.209 148.757 197.412 147.977 196.892C147.197 196.372 145.957 196.112 144.259 196.112C143.513 196.112 142.751 196.181 141.97 196.32C141.832 196.354 141.762 196.441 141.762 196.58ZM141.138 213.741C140.722 213.689 140.376 213.507 140.098 213.195C139.821 212.865 139.682 212.484 139.682 212.051V196.294C139.682 195.86 139.812 195.488 140.072 195.176C140.35 194.846 140.696 194.656 141.112 194.604C142.066 194.482 143.115 194.422 144.259 194.422C148.835 194.422 151.123 195.956 151.123 199.024C151.123 200.081 150.768 201 150.057 201.78C149.364 202.543 148.419 203.054 147.223 203.314C147.206 203.314 147.197 203.323 147.197 203.34C147.197 203.357 147.214 203.366 147.249 203.366C148.74 203.609 149.901 204.172 150.733 205.056C151.565 205.923 151.981 206.972 151.981 208.202C151.981 212.016 149.494 213.923 144.519 213.923C143.288 213.923 142.161 213.862 141.138 213.741ZM156.731 213.351C156.54 213.559 156.297 213.663 156.003 213.663C155.708 213.663 155.456 213.559 155.248 213.351C155.058 213.143 154.962 212.9 154.962 212.623V201.13C154.962 200.853 155.058 200.619 155.248 200.428C155.439 200.237 155.673 200.142 155.951 200.142C156.228 200.142 156.462 200.237 156.653 200.428C156.843 200.619 156.939 200.853 156.939 201.13V203.132C156.939 203.149 156.947 203.158 156.965 203.158C156.999 203.158 157.017 203.141 157.017 203.106C157.537 202.239 158.265 201.546 159.201 201.026C160.154 200.489 161.22 200.194 162.399 200.142C162.642 200.125 162.85 200.203 163.023 200.376C163.196 200.549 163.283 200.757 163.283 201C163.283 201.225 163.196 201.425 163.023 201.598C162.867 201.771 162.668 201.867 162.425 201.884C160.709 201.953 159.383 202.456 158.447 203.392C157.511 204.311 157.043 205.602 157.043 207.266V212.623C157.043 212.9 156.939 213.143 156.731 213.351ZM171.231 201.39C168.821 201.39 167.504 202.82 167.279 205.68C167.279 205.819 167.357 205.888 167.513 205.888H174.507C174.646 205.888 174.715 205.819 174.715 205.68C174.611 202.82 173.45 201.39 171.231 201.39ZM171.777 213.923C169.645 213.923 168.024 213.342 166.915 212.181C165.805 211.002 165.25 209.243 165.25 206.902C165.25 204.493 165.779 202.725 166.837 201.598C167.911 200.454 169.376 199.882 171.231 199.882C174.646 199.882 176.457 201.901 176.665 205.94C176.683 206.356 176.535 206.712 176.223 207.006C175.928 207.284 175.573 207.422 175.157 207.422H167.461C167.322 207.422 167.253 207.5 167.253 207.656C167.409 210.829 168.977 212.415 171.959 212.415C172.947 212.415 173.961 212.233 175.001 211.869C175.192 211.799 175.374 211.825 175.547 211.947C175.72 212.051 175.807 212.207 175.807 212.415C175.807 213.004 175.538 213.368 175.001 213.507C173.892 213.784 172.817 213.923 171.777 213.923ZM186.349 206.512C184.633 206.512 183.332 206.79 182.448 207.344C181.582 207.899 181.148 208.679 181.148 209.685C181.148 210.465 181.365 211.097 181.798 211.583C182.249 212.051 182.838 212.285 183.566 212.285C184.815 212.285 185.846 211.869 186.661 211.037C187.493 210.205 187.909 209.104 187.909 207.734V206.746C187.909 206.59 187.831 206.512 187.675 206.512H186.349ZM183.15 213.923C181.972 213.923 181.01 213.55 180.264 212.805C179.519 212.059 179.146 211.071 179.146 209.841C179.146 208.402 179.718 207.249 180.862 206.382C182.006 205.516 183.835 205.082 186.349 205.082H187.675C187.831 205.082 187.909 205.013 187.909 204.874V204.38C187.909 203.323 187.666 202.586 187.181 202.17C186.695 201.737 185.837 201.52 184.607 201.52C183.41 201.52 182.119 201.745 180.732 202.196C180.524 202.265 180.334 202.239 180.16 202.118C179.987 201.997 179.9 201.823 179.9 201.598C179.9 200.991 180.186 200.601 180.758 200.428C182.041 200.064 183.324 199.882 184.607 199.882C186.6 199.882 187.978 200.246 188.741 200.974C189.521 201.702 189.911 203.011 189.911 204.9V212.727C189.911 212.987 189.816 213.212 189.625 213.403C189.452 213.576 189.235 213.663 188.975 213.663C188.715 213.663 188.489 213.576 188.299 213.403C188.108 213.212 188.013 212.987 188.013 212.727L187.987 211.375C187.987 211.357 187.978 211.349 187.961 211.349C187.926 211.349 187.909 211.366 187.909 211.401C186.886 213.082 185.3 213.923 183.15 213.923ZM195.506 213.377C195.315 213.568 195.081 213.663 194.804 213.663C194.527 213.663 194.293 213.568 194.102 213.377C193.911 213.186 193.816 212.952 193.816 212.675V195.15C193.816 194.872 193.911 194.638 194.102 194.448C194.293 194.257 194.527 194.161 194.804 194.161C195.081 194.161 195.315 194.257 195.506 194.448C195.697 194.638 195.792 194.872 195.792 195.15V206.148C195.792 206.166 195.801 206.174 195.818 206.174L195.87 206.148L201.486 200.974C202.076 200.419 202.786 200.142 203.619 200.142C203.844 200.142 203.991 200.246 204.061 200.454C204.147 200.662 204.113 200.835 203.957 200.974L197.924 206.486C197.82 206.59 197.811 206.694 197.898 206.798L204.035 212.805C204.173 212.943 204.199 213.125 204.113 213.351C204.026 213.559 203.879 213.663 203.671 213.663C202.856 213.663 202.162 213.377 201.59 212.805L195.87 207.136C195.853 207.119 195.835 207.11 195.818 207.11C195.801 207.11 195.792 207.119 195.792 207.136V212.675C195.792 212.952 195.697 213.186 195.506 213.377ZM207.048 202.222C206.823 202.222 206.632 202.153 206.476 202.014C206.338 201.858 206.268 201.667 206.268 201.442C206.268 201.217 206.338 201.035 206.476 200.896C206.632 200.74 206.823 200.662 207.048 200.662H209.232C209.388 200.662 209.466 200.584 209.466 200.428V199.18C209.466 197.516 209.813 196.311 210.507 195.566C211.217 194.803 212.344 194.422 213.887 194.422C214.459 194.422 214.988 194.482 215.473 194.604C215.698 194.656 215.88 194.777 216.019 194.968C216.158 195.141 216.227 195.349 216.227 195.592C216.227 195.782 216.149 195.938 215.993 196.06C215.837 196.164 215.672 196.19 215.499 196.138C215.083 196.034 214.658 195.982 214.225 195.982C213.219 195.982 212.517 196.207 212.119 196.658C211.737 197.091 211.547 197.906 211.547 199.102V200.428C211.547 200.584 211.625 200.662 211.781 200.662H215.187C215.412 200.662 215.594 200.74 215.733 200.896C215.889 201.035 215.967 201.217 215.967 201.442C215.967 201.667 215.889 201.858 215.733 202.014C215.594 202.153 215.412 202.222 215.187 202.222H211.781C211.625 202.222 211.547 202.3 211.547 202.456V212.623C211.547 212.9 211.443 213.143 211.235 213.351C211.027 213.559 210.784 213.663 210.507 213.663C210.229 213.663 209.987 213.559 209.778 213.351C209.57 213.143 209.466 212.9 209.466 212.623V202.456C209.466 202.3 209.388 202.222 209.232 202.222H207.048ZM225.758 206.512C224.041 206.512 222.741 206.79 221.857 207.344C220.991 207.899 220.557 208.679 220.557 209.685C220.557 210.465 220.774 211.097 221.207 211.583C221.658 212.051 222.247 212.285 222.975 212.285C224.224 212.285 225.255 211.869 226.07 211.037C226.902 210.205 227.318 209.104 227.318 207.734V206.746C227.318 206.59 227.24 206.512 227.084 206.512H225.758ZM222.559 213.923C221.381 213.923 220.419 213.55 219.673 212.805C218.928 212.059 218.555 211.071 218.555 209.841C218.555 208.402 219.127 207.249 220.271 206.382C221.415 205.516 223.244 205.082 225.758 205.082H227.084C227.24 205.082 227.318 205.013 227.318 204.874V204.38C227.318 203.323 227.075 202.586 226.59 202.17C226.104 201.737 225.246 201.52 224.015 201.52C222.819 201.52 221.528 201.745 220.141 202.196C219.933 202.265 219.743 202.239 219.569 202.118C219.396 201.997 219.309 201.823 219.309 201.598C219.309 200.991 219.595 200.601 220.167 200.428C221.45 200.064 222.733 199.882 224.015 199.882C226.009 199.882 227.387 200.246 228.15 200.974C228.93 201.702 229.32 203.011 229.32 204.9V212.727C229.32 212.987 229.225 213.212 229.034 213.403C228.86 213.576 228.644 213.663 228.384 213.663C228.124 213.663 227.898 213.576 227.708 213.403C227.517 213.212 227.422 212.987 227.422 212.727L227.396 211.375C227.396 211.357 227.387 211.349 227.37 211.349C227.335 211.349 227.318 211.366 227.318 211.401C226.295 213.082 224.709 213.923 222.559 213.923ZM237.131 207.604C235.45 207.206 234.245 206.694 233.517 206.07C232.806 205.429 232.451 204.606 232.451 203.6C232.451 202.456 232.876 201.555 233.725 200.896C234.592 200.22 235.822 199.882 237.417 199.882C238.613 199.882 239.801 200.038 240.979 200.35C241.517 200.489 241.785 200.844 241.785 201.416C241.785 201.624 241.707 201.78 241.551 201.884C241.395 201.988 241.213 202.014 241.005 201.962C239.861 201.615 238.717 201.442 237.573 201.442C235.493 201.442 234.453 202.109 234.453 203.444C234.453 204.034 234.661 204.528 235.077 204.926C235.493 205.308 236.247 205.62 237.339 205.862C239.211 206.278 240.494 206.807 241.187 207.448C241.898 208.09 242.254 209.009 242.254 210.205C242.254 211.366 241.803 212.276 240.901 212.935C240.017 213.594 238.761 213.923 237.131 213.923C235.866 213.923 234.661 213.732 233.517 213.351C232.98 213.177 232.711 212.805 232.711 212.233C232.711 212.042 232.798 211.895 232.971 211.791C233.144 211.669 233.326 211.643 233.517 211.713C234.644 212.146 235.796 212.363 236.975 212.363C239.159 212.363 240.251 211.643 240.251 210.205C240.251 209.581 240.026 209.061 239.575 208.644C239.142 208.228 238.327 207.882 237.131 207.604ZM245.388 202.222C245.162 202.222 244.972 202.153 244.816 202.014C244.677 201.858 244.608 201.667 244.608 201.442C244.608 201.217 244.677 201.035 244.816 200.896C244.972 200.74 245.162 200.662 245.388 200.662H247.286C247.442 200.662 247.52 200.584 247.52 200.428V196.71C247.52 196.432 247.615 196.198 247.806 196.008C247.997 195.817 248.231 195.722 248.508 195.722C248.785 195.722 249.019 195.817 249.21 196.008C249.401 196.198 249.496 196.432 249.496 196.71V200.428C249.496 200.584 249.574 200.662 249.73 200.662H253.63C253.856 200.662 254.038 200.74 254.176 200.896C254.332 201.035 254.41 201.217 254.41 201.442C254.41 201.667 254.332 201.858 254.176 202.014C254.038 202.153 253.856 202.222 253.63 202.222H249.73C249.574 202.222 249.496 202.3 249.496 202.456V209.321C249.496 210.569 249.661 211.392 249.99 211.791C250.319 212.172 250.952 212.363 251.888 212.363C252.443 212.363 252.902 212.319 253.266 212.233C253.457 212.198 253.63 212.241 253.786 212.363C253.96 212.467 254.046 212.614 254.046 212.805C254.046 213.047 253.968 213.264 253.812 213.455C253.674 213.646 253.492 213.758 253.266 213.793C252.816 213.88 252.244 213.923 251.55 213.923C250.025 213.923 248.967 213.611 248.378 212.987C247.806 212.345 247.52 211.184 247.52 209.503V202.456C247.52 202.3 247.442 202.222 247.286 202.222H245.388Z" fill="black"/>
<path d="M6.29969 62V16.5162C7.30764 16.2222 8.2736 16.0752 9.19755 16.0752C10.2895 16.0752 11.2764 16.2222 12.1584 16.5162V56.5193H34.3963C34.6063 56.8553 34.7323 57.3802 34.7743 58.0942C34.8583 58.7662 34.8793 59.4801 34.8373 60.2361C34.7953 60.9501 34.6483 61.538 34.3963 62H6.29969ZM53.8614 62.882C51.0055 62.882 48.4436 62.21 46.1758 60.8661C43.9499 59.4801 42.186 57.5902 40.884 55.1963C39.6241 52.8024 38.9941 50.0936 38.9941 47.0697C38.9941 44.0459 39.6451 41.358 40.947 39.0061C42.249 36.6542 44.0129 34.8063 46.2388 33.4624C48.5066 32.0765 51.0475 31.3835 53.8614 31.3835C56.6752 31.3835 59.1951 32.0765 61.421 33.4624C63.6469 34.8063 65.3898 36.6542 66.6498 39.0061C67.9517 41.358 68.6027 44.0459 68.6027 47.0697C68.6027 50.0936 67.9517 52.8024 66.6498 55.1963C65.3898 57.5902 63.6469 59.4801 61.421 60.8661C59.2371 62.21 56.7172 62.882 53.8614 62.882ZM53.7984 57.4642C56.4863 57.4642 58.6282 56.5193 60.2241 54.6294C61.862 52.7395 62.681 50.2196 62.681 47.0697C62.681 45.5158 62.45 44.0879 61.988 42.7859C59.4681 42.7019 57.1792 42.198 55.1213 41.274C53.1054 40.3501 51.5095 39.0901 50.3336 37.4942C48.6536 38.2082 47.3307 39.4261 46.3648 41.148C45.3988 42.8279 44.9158 44.8438 44.9158 47.1957C44.9158 50.2616 45.7138 52.7395 47.3097 54.6294C48.9476 56.5193 51.1105 57.4642 53.7984 57.4642ZM89.2489 62.882C85.1751 62.882 82.0463 61.517 79.8624 58.7872C77.7205 56.0573 76.6495 52.0885 76.6495 46.8807V39.6361C75.3476 40.3501 73.8567 40.917 72.1768 41.337C70.5388 41.757 68.7959 41.967 66.948 41.967C64.8901 41.967 63.1052 41.694 61.5933 41.148C60.4593 40.77 59.8924 40.0351 59.8924 38.9431C59.8924 38.1452 60.1233 37.4732 60.5853 36.9272C61.0053 36.3813 61.5093 36.1083 62.0973 36.1083C62.2652 36.1083 62.4122 36.1293 62.5382 36.1713C62.6642 36.1713 62.7902 36.1923 62.9162 36.2343C63.6302 36.4022 64.3441 36.5492 65.0581 36.6752C65.7721 36.7592 66.507 36.8012 67.263 36.8012C69.4049 36.8012 71.4418 36.3183 73.3737 35.3523C75.3476 34.3444 76.7125 33.1264 77.4685 31.6985C78.3505 31.6145 79.2534 31.7195 80.1774 32.0135C81.1013 32.3075 81.8363 32.8114 82.3823 33.5254V46.8177C82.3823 50.4716 82.9702 53.1384 84.1462 54.8184C85.3221 56.4563 87.17 57.2752 89.6899 57.2752C95.6956 57.2752 98.6985 52.8864 98.6985 44.1089V32.2655C99.0344 32.1395 99.4544 32.0345 99.9584 31.9505C100.462 31.8665 100.987 31.8245 101.533 31.8245C102.541 31.8245 103.507 31.9715 104.431 32.2655V50.4086C104.431 52.6345 104.767 54.3774 105.439 55.6373C106.153 56.8553 107.329 57.4642 108.967 57.4642C109.429 57.4642 109.933 57.3592 110.479 57.1492C111.025 56.9392 111.592 56.6243 112.18 56.2043C112.894 56.5403 113.482 57.1282 113.944 57.9682C114.406 58.7662 114.616 59.5641 114.574 60.3621C113.902 61.118 113.041 61.727 111.991 62.189C110.941 62.651 109.807 62.882 108.589 62.882H108.526C104.494 62.882 101.764 61.118 100.336 57.5902C99.1604 59.3121 97.6485 60.6351 95.8006 61.559C93.9527 62.441 91.7688 62.882 89.2489 62.882Z" fill="black"/>
<ellipse cx="145.487" cy="41.7603" rx="18.8595" ry="22.9008" fill="#496642"/>
<path d="M142.794 29.378C142.794 19.3446 150.877 10.7445 161.653 10.7445" stroke="black" stroke-width="8.08263" stroke-miterlimit="16" stroke-linecap="square"/>
<path d="M128.596 10.3842C126.996 27.7927 133.907 32.8365 139.079 33.3704C140.326 33.4992 141.303 32.4487 141.373 31.1966C142.306 14.6987 135.867 9.29214 131.03 8.33047C129.771 8.08025 128.714 9.10608 128.596 10.3842Z" fill="black"/>
<path d="M177.217 15.3962L134.013 58.0828C132.924 59.1587 132.941 60.9262 134.146 61.8706C143.34 69.0776 162.282 76.7357 179.165 60.0549C196.078 43.3445 188.27 24.5925 180.964 15.5267C180.02 14.3545 178.288 14.3382 177.217 15.3962Z" fill="#FFA21F"/>
<path d="M177.645 15.9025C175.092 39.9147 196.959 46.5006 210.48 46.9207C211.851 46.9633 212.989 45.8968 213.029 44.5259C213.697 21.5534 192.922 14.5299 180.263 13.6922C178.935 13.6044 177.785 14.5796 177.645 15.9025Z" fill="black"/>
<path d="M61.8627 134.279C57.5789 134.279 53.8831 133.334 50.7752 131.444C47.7094 129.554 45.3575 126.908 43.7196 123.506C42.0816 120.104 41.2627 116.114 41.2627 111.537C41.2627 106.665 42.1446 102.402 43.9086 98.7483C45.7145 95.0525 48.2133 92.1756 51.4052 90.1177C54.597 88.0598 58.2509 87.0309 62.3667 87.0309C65.6425 87.0309 68.6243 87.7028 71.3122 89.0468C74.0421 90.3487 76.247 92.1756 77.9269 94.5275C77.7169 95.2835 77.1709 96.0604 76.289 96.8584C75.449 97.6563 74.6091 98.1813 73.7691 98.4333C72.2572 96.4594 70.5353 95.0105 68.6033 94.0865C66.6714 93.1626 64.5925 92.7006 62.3667 92.7006C59.3848 92.7006 56.7599 93.4776 54.492 95.0315C52.2241 96.5854 50.4602 98.7483 49.2003 101.52C47.9404 104.292 47.3104 107.526 47.3104 111.222C47.3104 114.708 47.8774 117.752 49.0113 120.356C50.1872 122.96 51.8882 124.997 54.1141 126.467C56.3819 127.895 59.1328 128.609 62.3667 128.609C65.1805 128.609 67.6164 128.042 69.6743 126.908C71.7322 125.774 73.6011 124.178 75.281 122.12C76.079 122.372 76.8979 122.834 77.7379 123.506C78.5779 124.178 79.1658 124.85 79.5018 125.522C77.5699 128.378 75.071 130.562 72.0052 132.074C68.9813 133.544 65.6005 134.279 61.8627 134.279Z" fill="black"/>
<path d="M134.945 116.765C134.021 116.555 133.16 116.198 132.362 115.694C131.564 115.19 130.892 114.498 130.346 113.616L132.488 110.403C134.504 107.421 136.31 105.405 137.906 104.355C139.544 103.305 141.308 102.78 143.198 102.78C145.088 102.78 146.684 103.347 147.985 104.481C149.287 105.573 150.19 107.064 150.694 108.954C151.87 106.98 153.382 105.468 155.23 104.418C157.078 103.326 159.136 102.78 161.404 102.78C164.68 102.78 167.2 103.851 168.963 105.993C170.769 108.135 171.672 111.138 171.672 115.002V122.372C171.672 124.682 171.966 126.341 172.554 127.349C173.184 128.357 174.171 128.861 175.515 128.861C176.103 128.861 176.544 129.113 176.838 129.617C177.174 130.121 177.342 130.793 177.342 131.633C177.342 132.305 177.153 132.914 176.775 133.46C176.439 134.006 175.872 134.279 175.074 134.279C168.984 134.279 165.94 130.541 165.94 123.065V115.002C165.94 110.466 164.155 108.198 160.585 108.198C158.737 108.198 157.099 108.933 155.671 110.403C154.285 111.873 153.193 113.91 152.395 116.513C151.639 119.117 151.261 122.141 151.261 125.585V133.397C150.841 133.523 150.379 133.628 149.875 133.712C149.371 133.796 148.888 133.838 148.426 133.838C147.418 133.838 146.474 133.691 145.592 133.397V113.301C145.592 111.663 145.382 110.403 144.962 109.521C144.542 108.639 143.786 108.198 142.694 108.198C142.064 108.198 141.35 108.492 140.552 109.08C139.796 109.626 138.767 110.907 137.465 112.923L134.945 116.765ZM175.54 128.861C176.59 128.861 177.787 128.546 179.131 127.916C180.517 127.286 181.861 126.215 183.163 124.703C184.465 123.191 185.536 121.154 186.376 118.592C187.216 115.988 187.636 112.734 187.636 108.828V102.78H182.974C182.68 102.108 182.533 101.268 182.533 100.26C182.533 99.2523 182.68 98.4123 182.974 97.7403H187.636V86.5899C188.434 86.2959 189.4 86.1489 190.533 86.1489C191.541 86.1489 192.507 86.2959 193.431 86.5899V97.7403H202.818C203.154 98.4123 203.322 99.2523 203.322 100.26C203.322 101.268 203.154 102.108 202.818 102.78H193.431V115.82C193.431 120.02 194.061 123.254 195.321 125.522C196.623 127.748 198.45 128.861 200.802 128.861C202.02 128.861 202.629 129.785 202.629 131.633C202.629 132.431 202.419 133.061 201.999 133.523C201.621 134.027 201.075 134.279 200.361 134.279C197.631 134.279 195.321 133.502 193.431 131.948C191.583 130.394 190.218 128.231 189.337 125.459C187.573 128.483 185.41 130.709 182.848 132.137C180.286 133.565 177.703 134.279 175.099 134.279C174.553 134.279 174.112 134.006 173.776 133.46C173.44 132.956 173.272 132.326 173.272 131.57C173.272 130.772 173.461 130.121 173.839 129.617C174.217 129.113 174.784 128.861 175.54 128.861ZM200.825 128.861C202.211 128.861 203.555 128.21 204.857 126.908C206.201 125.564 207.335 123.779 208.259 121.553C208.091 120.545 208.007 119.516 208.007 118.466C208.007 115.442 208.658 112.755 209.96 110.403C211.262 108.051 213.026 106.203 215.251 104.859C217.519 103.473 220.06 102.78 222.874 102.78C225.688 102.78 228.208 103.473 230.434 104.859C232.66 106.203 234.402 108.051 235.662 110.403C236.964 112.755 237.615 115.442 237.615 118.466C237.615 121.49 236.964 124.199 235.662 126.593C234.402 128.987 232.66 130.877 230.434 132.263C228.25 133.607 225.73 134.279 222.874 134.279C220.312 134.279 217.981 133.733 215.881 132.641C213.823 131.507 212.123 129.974 210.779 128.042C208.175 132.2 204.71 134.279 200.384 134.279C199.838 134.279 199.397 134.027 199.061 133.523C198.725 133.019 198.557 132.368 198.557 131.57C198.557 129.764 199.313 128.861 200.825 128.861ZM222.811 128.861C225.499 128.861 227.641 127.916 229.237 126.026C230.875 124.136 231.694 121.616 231.694 118.466C231.694 116.912 231.463 115.484 231.001 114.183C228.481 114.099 226.192 113.595 224.134 112.671C222.118 111.747 220.522 110.487 219.346 108.891C217.666 109.605 216.343 110.823 215.377 112.545C214.411 114.225 213.928 116.24 213.928 118.592C213.928 121.658 214.726 124.136 216.322 126.026C217.96 127.916 220.123 128.861 222.811 128.861ZM258.269 134.279C254.196 134.279 251.067 132.914 248.883 130.184C246.741 127.454 245.67 123.485 245.67 118.277V111.033C244.368 111.747 242.877 112.314 241.197 112.734C239.559 113.154 237.816 113.364 235.969 113.364C233.911 113.364 232.126 113.091 230.614 112.545C229.48 112.167 228.913 111.432 228.913 110.34C228.913 109.542 229.144 108.87 229.606 108.324C230.026 107.778 230.53 107.505 231.118 107.505C231.286 107.505 231.433 107.526 231.559 107.568C231.685 107.568 231.811 107.589 231.937 107.631C232.651 107.799 233.365 107.946 234.079 108.072C234.793 108.156 235.528 108.198 236.284 108.198C238.425 108.198 240.462 107.715 242.394 106.749C244.368 105.741 245.733 104.523 246.489 103.095C247.371 103.011 248.274 103.116 249.198 103.41C250.122 103.704 250.857 104.208 251.403 104.922V118.214C251.403 121.868 251.991 124.535 253.167 126.215C254.343 127.853 256.191 128.672 258.71 128.672C264.716 128.672 267.719 124.283 267.719 115.505V103.662C268.055 103.536 268.475 103.431 268.979 103.347C269.483 103.263 270.008 103.221 270.554 103.221C271.562 103.221 272.528 103.368 273.452 103.662V121.805C273.452 124.031 273.788 125.774 274.46 127.034C275.174 128.252 276.35 128.861 277.987 128.861C278.449 128.861 278.953 128.756 279.499 128.546C280.045 128.336 280.612 128.021 281.2 127.601C281.914 127.937 282.502 128.525 282.964 129.365C283.426 130.163 283.636 130.961 283.594 131.759C282.922 132.515 282.061 133.124 281.011 133.586C279.961 134.048 278.827 134.279 277.61 134.279H277.547C273.515 134.279 270.785 132.515 269.357 128.987C268.181 130.709 266.669 132.032 264.821 132.956C262.973 133.838 260.789 134.279 258.269 134.279Z" fill="black"/>
<path fill-rule="evenodd" clip-rule="evenodd" d="M88.9092 110.391V130.907C88.9092 133.226 90.7895 135.107 93.109 135.107H102.712V122.474C102.712 121.613 103.411 120.914 104.272 120.914H111.033C111.895 120.914 112.593 121.613 112.593 122.474V135.107H122.508C124.827 135.107 126.707 133.226 126.707 130.907V110.391C126.707 109.31 126.291 108.272 125.545 107.491L123.934 105.802V98.3385C123.934 96.1066 122.125 94.2972 119.893 94.2972H118.545C117.057 94.2972 115.851 95.5035 115.851 96.9914L110.848 91.9633C109.182 90.2892 106.464 90.3175 104.833 92.0259L90.071 107.491C89.3253 108.272 88.9092 109.31 88.9092 110.391Z" fill="#FFA21F"/>
<path d="M106.696 103.53C107.337 102.825 108.454 102.854 109.058 103.592L112.593 107.913H102.712L106.696 103.53Z" fill="#F1EEE7"/>
<path d="M112.593 107.913H102.712V111.293C102.712 112.155 103.41 112.853 104.272 112.853H111.033C111.895 112.853 112.593 112.155 112.593 111.293V107.913Z" fill="#F1EEE7"/>
</svg>
